<svg width="40" height="40" viewBox="0 0 40 40" fill="none" xmlns="http://www.w3.org/2000/svg">
<path d="M30.816 20C30.816 14.468 33.37 11.36 35.37 11.36H38C36.664 9.242 35.558 8 30.684 8H10.668C3.2 8 0 14.882 0 20C0 25.118 3.2 32 10.668 32H30.684C35.56 32 36.664 30.758 38 28.64H35.37C33.37 28.64 30.816 25.532 30.816 20ZM25.376 23.59C25.048 24.09 24.024 23.622 24.024 23.622L18.11 20.946C18.11 20.946 17.582 22.286 17.176 23.228C16.766 24.17 16.454 25.236 14.758 24.044C13.06 22.848 7.596 17.544 7.596 17.544C7.596 17.544 6.906 16.976 7.25 16.442C7.576 15.938 8.602 16.41 8.602 16.41L14.514 19.082C14.514 19.082 15.044 17.746 15.45 16.804C15.86 15.864 16.172 14.792 17.868 15.988C19.566 17.18 25.028 22.488 25.028 22.488C25.028 22.488 25.718 23.054 25.376 23.59ZM37.748 15.856H36.25C35.132 15.856 34.04 17.364 34.04 19.814C34.04 22.268 35.134 23.774 36.25 23.774H37.748C38.868 23.774 40 22.266 40 19.814C40 17.364 38.868 15.856 37.748 15.856Z" fill="black"/>
</svg>
