<svg width="302" height="73" viewBox="0 0 302 73" fill="none" xmlns="http://www.w3.org/2000/svg">
<path d="M91.3309 16.8323C96.3528 16.8323 100.639 18.6073 104.189 22.1573C107.739 25.7074 109.514 29.9934 109.514 35.0153C109.514 40.0373 107.739 44.3233 104.189 47.8733C100.639 51.4234 96.3528 53.1984 91.3309 53.1984C86.3089 53.1984 82.0229 51.4234 78.4729 47.8733C74.9228 44.3233 73.1478 40.0373 73.1478 35.0153C73.1478 29.9934 74.9228 25.7074 78.4729 22.1573C82.0229 18.6073 86.3089 16.8323 91.3309 16.8323ZM91.3309 24.625C88.4562 24.625 86.0058 25.6381 83.9797 27.6642C81.9536 29.6903 80.9406 32.1407 80.9406 35.0153C80.9406 37.89 81.9536 40.3404 83.9797 42.3665C86.0058 44.3926 88.4562 45.4056 91.3309 45.4056C94.2055 45.4056 96.6559 44.3926 98.682 42.3665C100.708 40.3404 101.721 37.89 101.721 35.0153C101.721 32.1407 100.708 29.6903 98.682 27.6642C96.6559 25.6381 94.2055 24.625 91.3309 24.625Z" fill="#023047"/>
<path d="M122.502 24.625V31.119H132.892C133.793 31.119 134.555 30.8073 135.178 30.1838C135.819 29.5431 136.139 28.7725 136.139 27.872C136.139 26.9715 135.819 26.2095 135.178 25.5861C134.555 24.9454 133.793 24.625 132.892 24.625H122.502ZM122.502 32.9892V53.1984H114.709V16.8323H132.892C135.94 16.8323 138.538 17.9146 140.685 20.0793C142.849 22.2266 143.932 24.8242 143.932 27.872C143.932 30.9198 142.858 33.5174 140.711 35.6647C139.914 36.4613 139.057 37.1107 138.139 37.6129L148.27 47.7435L142.763 53.2503L122.502 32.9892Z" fill="#023047"/>
<path d="M166.661 24.625V53.1984H158.868V24.625H148.478V16.8323H177.051V24.625H166.661Z" fill="#023047"/>
<path d="M182.246 36.3141V16.8323H190.039V36.3141C190.039 38.8251 190.922 40.9724 192.688 42.7561C194.472 44.5225 196.619 45.4056 199.13 45.4056C201.641 45.4056 203.78 44.5225 205.546 42.7561C207.33 40.9724 208.222 38.8251 208.222 36.3141V16.8323H216.015V36.3141C216.015 40.9724 214.361 44.9554 211.053 48.263C207.763 51.5532 203.789 53.1984 199.13 53.1984C194.472 53.1984 190.489 51.5532 187.181 48.263C183.891 44.9554 182.246 40.9724 182.246 36.3141Z" fill="#023047"/>
<path d="M229.002 32.8334V53.1984H221.21V16.7284L247.186 37.1973V16.8323H254.978V53.3023L229.002 32.8334Z" fill="#023047"/>
<path d="M273.447 45.4056H288.435L280.954 32.4178L273.447 45.4056ZM259.94 53.1984L280.928 16.8583V16.8323H280.954L301.942 53.1984H259.94Z" fill="#023047"/>
<circle cx="34.5789" cy="34.5789" r="34.5789" fill="#023047"/>
<path d="M59.3925 16.9693V28.9758H27.375V38.9813H59.3925V50.9879H27.375V73H15.3684V16.9693H59.3925Z" fill="#E8F4FF"/>
</svg>
