<svg width="50" height="50" viewBox="0 0 50 50" fill="none" xmlns="http://www.w3.org/2000/svg">
<path d="M42.8543 30.9584L45.8334 27.9792L42.8543 25L35.4167 32.4375L17.5626 14.5834L25.0001 7.14585L22.0209 4.16669L19.0417 7.14585L16.0626 4.16669L11.6042 8.62502L8.62508 5.64585L5.64591 8.62502L8.62508 11.6042L4.16675 16.0625L7.14592 19.0417L4.16675 22.0209L7.14592 25L14.5834 17.5625L32.4376 35.4167L25.0001 42.8542L27.9792 45.8334L30.9584 42.8542L33.9376 45.8334L38.3959 41.375L41.3751 44.3542L44.3543 41.375L41.3751 38.3959L45.8334 33.9375L42.8543 30.9584Z" fill="black"/>
</svg>
