<svg width="60" height="60" viewBox="0 0 60 60" fill="none" xmlns="http://www.w3.org/2000/svg">
<g clip-path="url(#clip0_20_268)">
<path fill-rule="evenodd" clip-rule="evenodd" d="M30 32.5C35.99 32.5 41.4375 34.235 45.445 36.68C47.445 37.9 49.155 39.34 50.39 40.905C51.605 42.4425 52.5 44.2825 52.5 46.25C52.5 48.3625 51.4725 50.0275 49.9925 51.215C48.5925 52.34 46.745 53.085 44.7825 53.605C40.8375 54.6475 35.5725 55 30 55C24.4275 55 19.1625 54.65 15.2175 53.605C13.255 53.085 11.4075 52.34 10.0075 51.215C8.525 50.025 7.5 48.3625 7.5 46.25C7.5 44.2825 8.395 42.4425 9.61 40.9025C10.845 39.34 12.5525 37.9025 14.555 36.6775C18.5625 34.2375 24.0125 32.5 30 32.5ZM30 37.5C24.9425 37.5 20.3925 38.975 17.16 40.9475C15.5425 41.9325 14.3225 43.0025 13.535 44.0025C12.725 45.0275 12.5 45.8025 12.5 46.25C12.5 46.555 12.5925 46.8775 13.1375 47.315C13.76 47.815 14.8425 48.3325 16.4975 48.77C19.7925 49.645 24.5275 50 30 50C35.475 50 40.2075 49.6425 43.5 48.77C45.1575 48.3325 46.24 47.815 46.8625 47.315C47.4075 46.8775 47.5 46.555 47.5 46.25C47.5 45.8 47.275 45.0275 46.4675 44.0025C45.6775 43.0025 44.4575 41.9325 42.84 40.9475C39.6075 38.9725 35.0575 37.5 30 37.5ZM30 5C33.3152 5 36.4946 6.31696 38.8388 8.66116C41.183 11.0054 42.5 14.1848 42.5 17.5C42.5 20.8152 41.183 23.9946 38.8388 26.3388C36.4946 28.683 33.3152 30 30 30C26.6848 30 23.5054 28.683 21.1612 26.3388C18.817 23.9946 17.5 20.8152 17.5 17.5C17.5 14.1848 18.817 11.0054 21.1612 8.66116C23.5054 6.31696 26.6848 5 30 5ZM30 10C29.0151 10 28.0398 10.194 27.1299 10.5709C26.2199 10.9478 25.3931 11.5003 24.6967 12.1967C24.0003 12.8931 23.4478 13.7199 23.0709 14.6299C22.694 15.5398 22.5 16.5151 22.5 17.5C22.5 18.4849 22.694 19.4602 23.0709 20.3701C23.4478 21.2801 24.0003 22.1069 24.6967 22.8033C25.3931 23.4997 26.2199 24.0522 27.1299 24.4291C28.0398 24.806 29.0151 25 30 25C31.9891 25 33.8968 24.2098 35.3033 22.8033C36.7098 21.3968 37.5 19.4891 37.5 17.5C37.5 15.5109 36.7098 13.6032 35.3033 12.1967C33.8968 10.7902 31.9891 10 30 10Z" fill="#023047"/>
</g>
<defs>
<clipPath id="clip0_20_268">
<rect width="60" height="60" fill="white"/>
</clipPath>
</defs>
</svg>
