<svg width="40" height="40" viewBox="0 0 40 40" fill="none" xmlns="http://www.w3.org/2000/svg">
<path fill-rule="evenodd" clip-rule="evenodd" d="M21.3575 9.87L24.6475 13.16L21.3575 16.45V9.87ZM21.3575 30.13L24.6475 26.84L21.3575 23.55V30.13ZM17.8325 20.0225L10.6875 12.8325L12.755 10.765L18.4425 16.45V2.82L28.785 13.16L21.9675 20.025L28.83 26.8875L18.49 37.23V23.55L12.755 29.235L10.6875 27.1675L17.8325 20.0225ZM19.7575 40C28.5025 40 34.5175 35.8625 34.5175 19.975C34.5175 4.1375 28.5025 0 19.76 0C11.0175 0 5 4.1375 5 20.025C5 35.86 11.015 40 19.7575 40Z" fill="black"/>
</svg>
