<svg width="16" height="16" viewBox="0 0 16 16" fill="none" xmlns="http://www.w3.org/2000/svg">
<g clip-path="url(#clip0_101124_689)">
<path opacity="0.4" d="M15.2422 9.8625L13.911 9.09375C14.0453 8.36867 14.0453 7.62508 13.911 6.9L15.2422 6.13125C15.316 6.08838 15.3731 6.02184 15.4043 5.94242C15.4355 5.863 15.439 5.77537 15.4141 5.69375C15.07 4.594 14.4862 3.58431 13.7047 2.7375C13.6472 2.67485 13.5701 2.63361 13.486 2.62055C13.402 2.60749 13.316 2.62338 13.2422 2.66563L11.911 3.43438C11.3518 2.9532 10.7073 2.58114 10.011 2.3375V0.803125C10.0109 0.71808 9.982 0.63557 9.92891 0.569134C9.87581 0.502697 9.80172 0.456281 9.71877 0.4375C8.59501 0.1875 7.43003 0.1875 6.30627 0.4375C6.22304 0.455973 6.14858 0.502257 6.09518 0.568723C6.04178 0.635188 6.01263 0.717866 6.01252 0.803125V2.34063C5.31792 2.58803 4.67411 2.95971 4.11252 3.4375L2.78283 2.66875C2.7092 2.62582 2.62305 2.60953 2.53883 2.62262C2.45461 2.63571 2.37746 2.67738 2.32033 2.74062C1.53754 3.58648 0.95353 4.59648 0.610957 5.69688C0.585447 5.77847 0.588581 5.86633 0.61984 5.9459C0.651099 6.02546 0.708606 6.09196 0.782832 6.13438L2.11408 6.90312C1.97971 7.6282 1.97971 8.3718 2.11408 9.09688L0.782832 9.86563C0.708935 9.90837 0.651709 9.9749 0.620493 10.0544C0.589278 10.1338 0.585916 10.2215 0.610957 10.3031C0.954823 11.403 1.53867 12.4127 2.32033 13.2594C2.37785 13.322 2.45495 13.3633 2.53899 13.3763C2.62303 13.3894 2.70902 13.3735 2.78283 13.3313L4.11408 12.5625C4.67316 13.0439 5.31766 13.4159 6.01408 13.6594V15.1969C6.01419 15.2821 6.04335 15.3648 6.09674 15.4313C6.15014 15.4977 6.2246 15.544 6.30783 15.5625C7.4316 15.8125 8.59657 15.8125 9.72033 15.5625C9.80357 15.544 9.87802 15.4977 9.93142 15.4313C9.98482 15.3648 10.014 15.2821 10.0141 15.1969V13.6594C10.7086 13.4119 11.3524 13.0402 11.9141 12.5625L13.2453 13.3313C13.319 13.3741 13.4051 13.3904 13.4893 13.3773C13.5735 13.3642 13.6507 13.3226 13.7078 13.2594C14.4907 12.4136 15.0748 11.4036 15.4172 10.3031C15.4412 10.2207 15.437 10.1326 15.4053 10.0528C15.3736 9.97301 15.3162 9.90605 15.2422 9.8625V9.8625ZM8.01096 10.9937C7.41823 10.9937 6.83882 10.818 6.34598 10.4887C5.85315 10.1594 5.46903 9.69134 5.24221 9.14373C5.01538 8.59612 4.95603 7.99355 5.07167 7.41221C5.1873 6.83088 5.47273 6.29688 5.89185 5.87776C6.31097 5.45864 6.84496 5.17322 7.4263 5.05758C8.00763 4.94195 8.6102 5.0013 9.15781 5.22812C9.70542 5.45495 10.1735 5.83907 10.5028 6.3319C10.8321 6.82473 11.0078 7.40415 11.0078 7.99687C11.0079 8.39044 10.9304 8.78016 10.7798 9.14378C10.6292 9.50739 10.4085 9.83778 10.1302 10.1161C9.85187 10.3944 9.52148 10.6151 9.15786 10.7657C8.79424 10.9163 8.40452 10.9938 8.01096 10.9937Z" fill="#213F7D"/>
<path d="M8.01092 9.99375C7.61597 9.99375 7.2299 9.87664 6.90151 9.65722C6.57313 9.4378 6.31718 9.12593 6.16604 8.76105C6.0149 8.39617 5.97536 7.99466 6.05241 7.60731C6.12946 7.21995 6.31964 6.86414 6.59891 6.58487C6.87818 6.3056 7.23399 6.11542 7.62135 6.03837C8.0087 5.96132 8.41021 6.00087 8.77509 6.152C9.13997 6.30314 9.45184 6.55909 9.67126 6.88747C9.89068 7.21586 10.0078 7.60193 10.0078 7.99688C10.0078 8.25911 9.95615 8.51878 9.85579 8.76105C9.75544 9.00332 9.60835 9.22345 9.42292 9.40888C9.2375 9.59431 9.01736 9.7414 8.77509 9.84175C8.53282 9.9421 8.27315 9.99375 8.01092 9.99375V9.99375Z" fill="#213F7D"/>
</g>
<defs>
<clipPath id="clip0_101124_689">
<rect width="16" height="16" fill="white"/>
</clipPath>
</defs>
</svg>
