<svg width="45" height="45" viewBox="0 0 45 45" fill="none" xmlns="http://www.w3.org/2000/svg">
<path d="M23.85 20.25C22.95 20.025 22.05 19.575 21.375 18.9C20.7 18.675 20.475 18 20.475 17.55C20.475 17.1 20.7 16.425 21.15 16.2C21.825 15.75 22.5 15.3 23.175 15.525C24.525 15.525 25.65 16.2 26.325 17.1L28.35 14.4C27.675 13.725 27 13.275 26.325 12.825C25.65 12.375 24.75 12.15 23.85 12.15V9H21.15V12.15C20.025 12.375 18.9 13.05 18 13.95C17.1 15.075 16.425 16.425 16.65 17.775C16.65 19.125 17.1 20.475 18 21.375C19.125 22.5 20.7 23.175 22.05 23.85C22.725 24.075 23.625 24.525 24.3 24.975C24.75 25.425 24.975 26.1 24.975 26.775C24.975 27.45 24.75 28.125 24.3 28.8C23.625 29.475 22.725 29.7 22.05 29.7C21.15 29.7 20.025 29.475 19.35 28.8C18.675 28.35 18 27.675 17.55 27L15.3 29.475C15.975 30.375 16.65 31.05 17.55 31.725C18.675 32.4 20.025 33.075 21.375 33.075V36H23.85V32.625C25.2 32.4 26.325 31.725 27.225 30.825C28.35 29.7 29.025 27.9 29.025 26.325C29.025 24.975 28.575 23.4 27.45 22.5C26.325 21.375 25.2 20.7 23.85 20.25ZM22.5 4.5C12.6 4.5 4.5 12.6 4.5 22.5C4.5 32.4 12.6 40.5 22.5 40.5C32.4 40.5 40.5 32.4 40.5 22.5C40.5 12.6 32.4 4.5 22.5 4.5ZM22.5 38.025C13.95 38.025 6.975 31.05 6.975 22.5C6.975 13.95 13.95 6.975 22.5 6.975C31.05 6.975 38.025 13.95 38.025 22.5C38.025 31.05 31.05 38.025 22.5 38.025Z" fill="black"/>
</svg>
