<svg width="16" height="22" viewBox="0 0 16 22" fill="none" xmlns="http://www.w3.org/2000/svg">
<g clip-path="url(#clip0_101124_673)">
<path opacity="0.4" d="M9.32917 0.92018C8.96667 -0.27982 7.08333 -0.333986 6.67083 0.92018C4.54583 7.49101 0 9.27851 0 13.9123C0 18.0123 3.57917 21.3331 8 21.3331C12.4208 21.3331 16 18.0123 16 13.9123C16 9.25768 11.4625 7.52435 9.32917 0.92018V0.92018ZM4 11.9998C4 11.7361 4.0782 11.4783 4.22471 11.259C4.37122 11.0397 4.57945 10.8688 4.82309 10.7679C5.06672 10.667 5.33481 10.6406 5.59345 10.692C5.8521 10.7435 6.08967 10.8705 6.27614 11.057C6.46261 11.2434 6.5896 11.481 6.64105 11.7396C6.69249 11.9983 6.66609 12.2664 6.56517 12.51C6.46426 12.7536 6.29336 12.9619 6.07409 13.1084C5.85483 13.2549 5.59704 13.3331 5.33333 13.3331C4.97971 13.3331 4.64057 13.1926 4.39052 12.9426C4.14048 12.6925 4 12.3534 4 11.9998ZM6.0625 17.4914C6.03546 17.5258 6.00182 17.5544 5.96356 17.5756C5.9253 17.5968 5.88318 17.6101 5.8397 17.6147C5.79622 17.6194 5.75224 17.6153 5.71036 17.6027C5.66848 17.5901 5.62954 17.5693 5.59583 17.5414L5.075 17.1248C5.00682 17.0693 4.96331 16.9891 4.95395 16.9017C4.94458 16.8143 4.97012 16.7268 5.025 16.6581L9.94167 10.5118C9.99715 10.4437 10.0773 10.4002 10.1647 10.3908C10.2521 10.3814 10.3397 10.407 10.4083 10.4618L10.9292 10.8785C10.9635 10.9056 10.9922 10.9392 11.0133 10.9775C11.0345 11.0157 11.0478 11.0578 11.0525 11.1013C11.0571 11.1448 11.0531 11.1888 11.0405 11.2307C11.0279 11.2725 11.007 11.3115 10.9792 11.3452L6.0625 17.4914ZM10.6667 17.3331C10.403 17.3331 10.1452 17.2549 9.92591 17.1084C9.70664 16.9619 9.53574 16.7536 9.43483 16.51C9.33391 16.2664 9.30751 15.9983 9.35895 15.7396C9.4104 15.481 9.53739 15.2434 9.72386 15.057C9.91033 14.8705 10.1479 14.7435 10.4065 14.6921C10.6652 14.6406 10.9333 14.667 11.1769 14.7679C11.4205 14.8688 11.6288 15.0397 11.7753 15.259C11.9218 15.4783 12 15.7361 12 15.9998C12 16.3534 11.8595 16.6925 11.6095 16.9426C11.3594 17.1926 11.0203 17.3331 10.6667 17.3331V17.3331Z" fill="#213F7D"/>
<path d="M5.33333 10.6666C5.06962 10.6666 4.81184 10.7448 4.59257 10.8913C4.37331 11.0378 4.20241 11.2461 4.10149 11.4897C4.00058 11.7334 3.97417 12.0014 4.02562 12.2601C4.07707 12.5187 4.20405 12.7563 4.39052 12.9428C4.57699 13.1292 4.81457 13.2562 5.07321 13.3077C5.33185 13.3591 5.59994 13.3327 5.84358 13.2318C6.08721 13.1309 6.29545 12.96 6.44196 12.7407C6.58846 12.5215 6.66666 12.2637 6.66666 12C6.66666 11.6463 6.52619 11.3072 6.27614 11.0572C6.02609 10.8071 5.68695 10.6666 5.33333 10.6666ZM10.6667 14.6666C10.4029 14.6666 10.1452 14.7448 9.9259 14.8913C9.70663 15.0379 9.53573 15.2461 9.43482 15.4897C9.3339 15.7334 9.3075 16.0015 9.35894 16.2601C9.41039 16.5187 9.53738 16.7563 9.72385 16.9428C9.91032 17.1293 10.1479 17.2562 10.4065 17.3077C10.6652 17.3591 10.9333 17.3327 11.1769 17.2318C11.4205 17.1309 11.6288 16.96 11.7753 16.7407C11.9218 16.5215 12 16.2637 12 16C12 15.6463 11.8595 15.3072 11.6095 15.0572C11.3594 14.8071 11.0203 14.6666 10.6667 14.6666V14.6666Z" fill="#213F7D"/>
</g>
<defs>
<clipPath id="clip0_101124_673">
<rect width="16" height="21.3333" fill="white"/>
</clipPath>
</defs>
</svg>
