<svg width="50" height="50" viewBox="0 0 50 50" fill="none" xmlns="http://www.w3.org/2000/svg">
<path d="M31.2499 8.33331C35.6702 8.33331 39.9094 10.0893 43.035 13.2149C46.1606 16.3405 47.9166 20.5797 47.9166 25C47.9166 29.4203 46.1606 33.6595 43.035 36.7851C39.9094 39.9107 35.6702 41.6666 31.2499 41.6666C26.8296 41.6666 22.5904 39.9107 19.4648 36.7851C16.3392 33.6595 14.5833 29.4203 14.5833 25C14.5833 20.5797 16.3392 16.3405 19.4648 13.2149C22.5904 10.0893 26.8296 8.33331 31.2499 8.33331ZM31.2499 12.5C27.9347 12.5 24.7553 13.8169 22.4111 16.1611C20.0669 18.5053 18.7499 21.6848 18.7499 25C18.7499 28.3152 20.0669 31.4946 22.4111 33.8388C24.7553 36.183 27.9347 37.5 31.2499 37.5C34.5651 37.5 37.7446 36.183 40.0888 33.8388C42.433 31.4946 43.7499 28.3152 43.7499 25C43.7499 21.6848 42.433 18.5053 40.0888 16.1611C37.7446 13.8169 34.5651 12.5 31.2499 12.5ZM29.1666 16.6666H32.2916V24.5416L37.1458 29.3958L34.9374 31.6041L29.1666 25.8333V16.6666ZM4.16659 37.5C3.61405 37.5 3.08415 37.2805 2.69345 36.8898C2.30275 36.4991 2.08325 35.9692 2.08325 35.4166C2.08325 34.8641 2.30275 34.3342 2.69345 33.9435C3.08415 33.5528 3.61405 33.3333 4.16659 33.3333H12.1458C12.7916 34.8125 13.6249 36.2083 14.5833 37.5H4.16659ZM6.24992 27.0833C5.69738 27.0833 5.16748 26.8638 4.77678 26.4731C4.38608 26.0824 4.16659 25.5525 4.16659 25C4.16659 24.4474 4.38608 23.9175 4.77678 23.5268C5.16748 23.1361 5.69738 22.9166 6.24992 22.9166H10.5208L10.4166 25L10.5208 27.0833H6.24992ZM8.33325 16.6666C7.78072 16.6666 7.25081 16.4472 6.86011 16.0565C6.46941 15.6658 6.24992 15.1358 6.24992 14.5833C6.24992 14.0308 6.46941 13.5009 6.86011 13.1102C7.25081 12.7195 7.78072 12.5 8.33325 12.5H14.5833C13.6249 13.7916 12.7916 15.1875 12.1458 16.6666H8.33325Z" fill="black"/>
</svg>
