<svg width="16" height="16" viewBox="0 0 16 16" fill="none" xmlns="http://www.w3.org/2000/svg">
<path d="M6.05628 1.29123C6.23565 1.12874 6.47002 1.03936 6.71191 1.03998M6.05628 1.29123C5.88056 1.45053 5.77004 1.66689 5.7428 1.89998H5.74628H5.84356M6.05628 1.29123L6.12342 1.36534C6.12342 1.36534 6.12343 1.36533 6.12344 1.36532M6.05628 1.29123L6.12344 1.36532M6.71191 1.03998L5.74628 2.00012L5.83627 2.00137C5.83628 2.00091 5.83628 2.00045 5.83629 1.99998C5.83681 1.96635 5.83925 1.93297 5.84356 1.89998M6.71191 1.03998H9.28823C9.52823 1.03998 9.7601 1.12873 9.93948 1.28936L6.71191 1.03998ZM5.84356 1.89998H5.84628V1.99998V2.63998V2.73998H5.83484L5.83279 3.81992H10.1595V2.01624V2.01601C10.16 1.7675 10.0558 1.53081 9.87244 1.36357C9.7114 1.2195 9.5034 1.13998 9.28823 1.13998H6.71191H6.71165C6.49451 1.13942 6.28423 1.21968 6.12344 1.36532M5.84356 1.89998C5.87027 1.69523 5.96866 1.50564 6.12344 1.36532M10.4435 0.743462L10.4432 0.743197C10.128 0.459151 9.7185 0.301855 9.29439 0.301855H6.71183C6.28774 0.301855 5.87823 0.459137 5.56356 0.743267C5.23239 1.0423 5.03181 1.45751 5.00141 1.89998H3.17746C2.41535 1.89998 1.79746 2.51787 1.79746 3.27998V14.32C1.79746 14.6859 1.94302 15.037 2.20176 15.2957C2.4605 15.5544 2.81155 15.7 3.17746 15.7H12.8274C13.1933 15.7 13.5443 15.5544 13.8031 15.2957C14.0618 15.0369 14.2074 14.6859 14.2074 14.32L14.2075 3.27998C14.2075 2.91406 14.062 2.56301 13.8032 2.30428C13.5445 2.04555 13.1934 1.89998 12.8275 1.89998H11.0036C10.9732 1.45814 10.7733 1.04303 10.4435 0.743462ZM11.4369 3.31749H11.0075V2.73998H12.8275C12.9703 2.73998 13.108 2.79695 13.2093 2.8982C13.3105 2.99949 13.3675 3.13656 13.3675 3.27998L13.3675 14.32C13.3675 14.4634 13.3106 14.6005 13.2093 14.7018C13.108 14.803 12.9704 14.86 12.8275 14.86H3.17247C2.87451 14.86 2.63247 14.6184 2.63247 14.32V3.27998C2.63247 2.98153 2.87451 2.73998 3.17247 2.73998H4.99247V3.31749H4.56309C4.06599 3.31749 3.66309 3.72039 3.66309 4.21749V13.0624C3.66309 13.3008 3.75801 13.53 3.92675 13.6988C4.09549 13.8675 4.32468 13.9624 4.56309 13.9624H9.30565H9.34768L9.37708 13.9324L12.3083 10.9406L12.3369 10.9114V10.8706V4.21749C12.3369 3.97908 12.2419 3.74989 12.0732 3.58115C11.9045 3.4124 11.6753 3.31749 11.4369 3.31749ZM5.41503 4.65998H10.5875C10.6984 4.65998 10.8057 4.61574 10.8845 4.53694C10.9632 4.45823 11.0075 4.35156 11.0075 4.23998V4.15748H11.4369C11.4528 4.15748 11.468 4.16378 11.4793 4.17507C11.4906 4.18635 11.4969 4.20156 11.4969 4.21748V10.1975H9.63193C9.13483 10.1975 8.73193 10.6004 8.73193 11.0975V13.1224H4.56313C4.53024 13.1224 4.50313 13.0953 4.50313 13.0624V4.21748C4.50313 4.18458 4.53024 4.15748 4.56313 4.15748H4.99251V4.23998C4.99251 4.35155 5.03683 4.45823 5.11555 4.53694C5.19434 4.61573 5.30166 4.65998 5.41251 4.65998H5.41503ZM9.63199 11.0437H11.0308L9.57199 12.5325V11.1037C9.57199 11.0708 9.59909 11.0437 9.63199 11.0437Z" fill="#213F7D" stroke="#213F7D" stroke-width="0.2"/>
<path d="M5.80499 7.14002H7.66371C7.89581 7.14002 8.08371 6.95213 8.08371 6.72002C8.08371 6.48792 7.89581 6.30002 7.66371 6.30002H5.80499C5.57288 6.30002 5.38499 6.48792 5.38499 6.72002C5.38499 6.95213 5.57288 7.14002 5.80499 7.14002Z" fill="#213F7D" stroke="#213F7D" stroke-width="0.2"/>
<path d="M5.80499 9.05995H10.0637C10.2958 9.05995 10.4837 8.87205 10.4837 8.63995C10.4837 8.40784 10.2958 8.21995 10.0637 8.21995H5.80499C5.57288 8.21995 5.38499 8.40784 5.38499 8.63995C5.38499 8.87205 5.57288 9.05995 5.80499 9.05995Z" fill="#213F7D" stroke="#213F7D" stroke-width="0.2"/>
</svg>
