<svg width="16" height="16" viewBox="0 0 16 16" fill="none" xmlns="http://www.w3.org/2000/svg">
<path d="M5.5 7H1.5C1.22374 7 1 7.22374 1 7.5V13.5C1 14.3281 1.67187 15 2.5 15H5.5C5.6325 15 5.76 14.9475 5.85374 14.8537C5.94749 14.76 5.99999 14.6325 5.99999 14.5V7.50001C5.99999 7.36751 5.94749 7.24001 5.85374 7.14626C5.75999 7.05251 5.6325 7.00001 5.5 7.00001V7ZM5 14H2.5C2.22374 14 2 13.7763 2 13.5V8H5V14ZM13.5 1H2.5C1.67187 1 1 1.67187 1 2.5V5.5C1 5.6325 1.0525 5.76 1.14625 5.85374C1.24 5.94749 1.3675 5.99999 1.49999 5.99999H14.5C14.6325 5.99999 14.76 5.94749 14.8537 5.85374C14.9475 5.75999 15 5.6325 15 5.5V2.5C15 1.67187 14.3281 1 13.5 1H13.5ZM14 5H2V2.5C2 2.22374 2.22374 2 2.5 2H13.5C13.6325 2 13.76 2.0525 13.8537 2.14625C13.9475 2.24 14 2.3675 14 2.49999L14 5ZM14.5 7H7.5C7.22374 7 7 7.22374 7 7.5V14.5C7 14.6325 7.0525 14.76 7.14625 14.8537C7.24 14.9475 7.3675 15 7.49999 15H13.5C14.3281 15 15 14.3281 15 13.5V7.49999C15 7.36749 14.9475 7.23999 14.8537 7.14625C14.76 7.0525 14.6325 7 14.5 7ZM14 13.5C14 13.6325 13.9475 13.76 13.8538 13.8537C13.76 13.9475 13.6325 14 13.5 14H8.00001V7.99999H14L14 13.5Z" fill="#213F7D"/>
</svg>
