<svg width="16" height="16" viewBox="0 0 16 16" fill="none" xmlns="http://www.w3.org/2000/svg">
<g clip-path="url(#clip0_101124_844)">
<path d="M15.9415 10.7971L15.9424 10.7963L15.9146 10.7098C15.3035 8.80782 13.4539 7.64899 11.5434 7.83733C11.2967 7.66033 10.9931 7.44296 10.8168 7.31948C11.1015 6.91754 11.6818 5.95895 11.6818 4.5881C11.6818 3.62401 11.3289 2.44301 10.5612 1.50058C9.78965 0.553518 8.60065 -0.150061 6.94295 -0.150061C4.91817 -0.150061 2.20351 1.38855 2.20351 4.58874C2.20351 5.96205 2.77983 6.91276 3.06549 7.31558C1.27345 8.49043 0.479472 10.0859 0.136029 11.3971C-0.0398026 12.0684 -0.0978325 12.6657 -0.111921 13.0957C-0.118969 13.3109 -0.11503 13.4845 -0.109259 13.6049C-0.106372 13.6652 -0.103026 13.7122 -0.10036 13.7445C-0.0990268 13.7606 -0.0978637 13.7731 -0.0970128 13.7817L-0.0959885 13.7917L-0.0956853 13.7945L-0.0955917 13.7954L-0.0955602 13.7956C-0.0955488 13.7957 -0.0955391 13.7958 0.053494 13.7788L-0.0955391 13.7958L-0.0803647 13.9288H0.053494H8.265C9.18947 15.685 11.2678 16.5774 13.2232 15.9498L13.2232 15.9498C15.3842 15.255 16.5858 12.9619 15.9415 10.7971ZM0.791938 13.0427C0.848257 10.665 2.25443 8.62078 4.27349 7.64716L4.70961 7.43686L4.27719 7.37083C3.5451 6.66917 3.08938 5.68275 3.08938 4.58882C3.08938 2.4611 4.81471 0.735619 6.94258 0.735619C9.07048 0.735619 10.7958 2.46032 10.7958 4.58882C10.7958 5.69869 10.3261 6.69896 9.5751 7.40255L9.41545 7.55211L9.6125 7.64713C9.84248 7.75803 10.1327 7.94358 10.391 8.1211C8.45182 8.90168 7.38629 11.013 7.92187 13.0427H0.791938ZM12.9616 15.1335L12.9616 15.1335C11.2218 15.6925 9.35873 14.7353 8.79975 12.9954L8.66856 13.0376L8.79974 12.9954C8.24073 11.2556 9.19852 9.39254 10.9379 8.83355C12.6771 8.27458 14.5407 9.23173 15.0997 10.9716C15.6582 12.7115 14.7009 14.5752 12.9616 15.1335ZM13.0441 14.072L13.15 14.1774L13.2558 14.072L14.0227 13.3089L14.1295 13.2027L14.0227 13.0963L12.919 11.9966L14.0163 10.8953L14.1217 10.7895L14.0163 10.6836L13.2525 9.91673L13.1463 9.81004L13.04 9.9167L11.9402 11.0204L10.839 9.9232L10.7331 9.81774L10.6273 9.92317L9.86038 10.6869L9.75369 10.7932L9.86036 10.8995L10.9641 11.9992L9.86685 13.1005L9.76139 13.2063L9.86683 13.3122L10.6306 14.0791L10.7368 14.1858L10.8431 14.0791L11.9429 12.9753L13.0441 14.072Z" fill="#213F7D" stroke="#213F7D" stroke-width="0.3"/>
</g>
<defs>
<clipPath id="clip0_101124_844">
<rect width="16" height="16" fill="white"/>
</clipPath>
</defs>
</svg>
