<svg width="16" height="16" viewBox="0 0 16 16" fill="none" xmlns="http://www.w3.org/2000/svg">
<g clip-path="url(#clip0_101124_649)">
<path fill-rule="evenodd" clip-rule="evenodd" d="M12.2655 11.5662L15.7718 8.49872C16.0486 8.25622 16.0767 7.8356 15.8343 7.5581C15.8149 7.5356 15.7936 7.51497 15.7718 7.4956L12.2442 4.40936C11.9792 4.17748 11.5799 4.19185 11.3317 4.44123L11.3286 4.44498C11.0955 4.67999 11.0967 5.05999 11.3317 5.29311C11.3392 5.29999 11.3461 5.30749 11.3536 5.31374L13.6018 7.33054H4.66737C4.29924 7.33054 4.00112 7.62866 4.00112 7.99742C4.00112 8.36554 4.29924 8.66367 4.66737 8.66367H13.6018L11.3843 10.585C11.1143 10.8187 11.085 11.2268 11.3187 11.4962C11.3218 11.4999 11.3256 11.5037 11.3287 11.5074L11.3331 11.5124C11.5775 11.7818 11.9925 11.8056 12.2656 11.5662L12.2655 11.5662ZM10.003 3.33312C9.63483 3.33312 9.33607 3.03499 9.33607 2.66624V1.33312H1.99975C1.63163 1.33312 1.33287 1.63187 1.33287 2V14C1.33287 14.3681 1.63163 14.6669 1.99975 14.6669H9.33607V13.3338C9.33607 12.965 9.63483 12.6669 10.003 12.6669C10.3717 12.6669 10.6698 12.965 10.6698 13.3338V14.6669C10.6661 15.3331 9.99921 16 9.33609 16H1.33289C0.66601 16 -0.000854492 15.3331 -0.000854492 14.6669V1.33312C-0.000854492 0.666864 0.666026 0 1.33289 0H9.33225C9.99913 0 10.666 0.680624 10.666 1.33312L10.6685 2.66624C10.6691 3.03374 10.3722 3.3325 10.0048 3.33312H10.0029H10.003Z" fill="#213F7D"/>
</g>
<defs>
<clipPath id="clip0_101124_649">
<rect width="16" height="16" fill="white"/>
</clipPath>
</defs>
</svg>
