<svg width="16" height="16" viewBox="0 0 16 16" fill="none" xmlns="http://www.w3.org/2000/svg">
<g clip-path="url(#clip0_101124_708)">
<path d="M12.5669 6.33312C12.5669 6.53813 12.7091 6.71 12.9 6.75523V6.76688H13C13.239 6.76688 13.4331 6.57273 13.4331 6.33376V1.66688C13.4331 0.692301 12.6409 -0.1 11.6669 -0.1H1.66687C1.4274 -0.1 1.23313 0.094026 1.23313 0.33312C1.23313 0.572718 1.42728 0.766864 1.66687 0.766864H11.6669C12.1629 0.766864 12.5669 1.17089 12.5669 1.66624V6.33312Z" fill="#213F7D" stroke="#213F7D" stroke-width="0.2"/>
<path d="M12.5669 13.6669C12.5669 13.9058 12.761 14.1 13 14.1C13.239 14.1 13.4331 13.9058 13.4331 13.6669V8.99999C13.4331 8.76102 13.239 8.56687 13 8.56687C12.761 8.56687 12.5669 8.76102 12.5669 8.99999V13.6669Z" fill="#213F7D" stroke="#213F7D" stroke-width="0.2"/>
<mask id="path-3-outside-1_101124_708" maskUnits="userSpaceOnUse" x="-1" y="-0.999878" width="18" height="18" fill="black">
<rect fill="white" x="-1" y="-0.999878" width="18" height="18"/>
<path d="M14.3331 16.0001H4.33312C3.41437 16.0001 2.66688 15.2526 2.66688 14.3332V2.66698H0.33312C0.149376 2.66698 0 2.51761 0 2.33324V1.66636C0 0.74761 0.748128 0.00012207 1.66688 0.00012207C2.58563 0.00012207 3.33312 0.747626 3.33312 1.667V14.3339C3.33312 14.8845 3.78187 15.3333 4.33312 15.3333C4.88437 15.3333 5.33312 14.8845 5.33312 14.3333V13.6664C5.33312 13.4826 5.48249 13.3333 5.66686 13.3333H15.6669C15.8506 13.3333 16 13.4826 16 13.6664V14.3333C16 15.2526 15.2519 16.0001 14.3331 16.0001L14.3331 16.0001ZM5.66624 15.3332H14.3331C14.8844 15.3332 15.3331 14.8845 15.3331 14.3332V14.0001H6V14.3332C6 14.7089 5.87563 15.0545 5.66626 15.3332H5.66624ZM0.66688 2.00011H2.66688V1.66699C2.66688 1.11574 2.21813 0.666986 1.66688 0.666986C1.11563 0.666986 0.66688 1.11574 0.66688 1.66699V2.00011Z"/>
</mask>
<path d="M14.3331 16.0001H4.33312C3.41437 16.0001 2.66688 15.2526 2.66688 14.3332V2.66698H0.33312C0.149376 2.66698 0 2.51761 0 2.33324V1.66636C0 0.74761 0.748128 0.00012207 1.66688 0.00012207C2.58563 0.00012207 3.33312 0.747626 3.33312 1.667V14.3339C3.33312 14.8845 3.78187 15.3333 4.33312 15.3333C4.88437 15.3333 5.33312 14.8845 5.33312 14.3333V13.6664C5.33312 13.4826 5.48249 13.3333 5.66686 13.3333H15.6669C15.8506 13.3333 16 13.4826 16 13.6664V14.3333C16 15.2526 15.2519 16.0001 14.3331 16.0001L14.3331 16.0001ZM5.66624 15.3332H14.3331C14.8844 15.3332 15.3331 14.8845 15.3331 14.3332V14.0001H6V14.3332C6 14.7089 5.87563 15.0545 5.66626 15.3332H5.66624ZM0.66688 2.00011H2.66688V1.66699C2.66688 1.11574 2.21813 0.666986 1.66688 0.666986C1.11563 0.666986 0.66688 1.11574 0.66688 1.66699V2.00011Z" fill="#213F7D"/>
<path d="M14.3331 16.0001L14.512 16.0895L14.6567 15.8001H14.3331V16.0001ZM2.66688 2.66698H2.86688V2.46698H2.66688V2.66698ZM14.3331 16.0001L14.1542 15.9107L14.0095 16.2001H14.3331V16.0001ZM15.3331 14.0001H15.5331V13.8001H15.3331V14.0001ZM6 14.0001V13.8001H5.8V14.0001H6ZM5.66626 15.3332V15.5332H5.76617L5.82617 15.4533L5.66626 15.3332ZM0.66688 2.00011H0.46688V2.20011H0.66688V2.00011ZM2.66688 2.00011V2.20011H2.86688V2.00011H2.66688ZM14.3331 15.8001H4.33312V16.2001H14.3331V15.8001ZM4.33312 15.8001C3.52488 15.8001 2.86688 15.1422 2.86688 14.3332H2.46688C2.46688 15.363 3.30386 16.2001 4.33312 16.2001V15.8001ZM2.86688 14.3332V2.66698H2.46688V14.3332H2.86688ZM2.66688 2.46698H0.33312V2.86698H2.66688V2.46698ZM0.33312 2.46698C0.260076 2.46698 0.2 2.4074 0.2 2.33324H-0.2C-0.2 2.62782 0.0386761 2.86698 0.33312 2.86698V2.46698ZM0.2 2.33324V1.66636H-0.2V2.33324H0.2ZM0.2 1.66636C0.2 0.858167 0.858485 0.200122 1.66688 0.200122V-0.199878C0.637771 -0.199878 -0.2 0.637053 -0.2 1.66636H0.2ZM1.66688 0.200122C2.47512 0.200122 3.13312 0.858032 3.13312 1.667H3.53312C3.53312 0.63722 2.69614 -0.199878 1.66688 -0.199878V0.200122ZM3.13312 1.667V14.3339H3.53312V1.667H3.13312ZM3.13312 14.3339C3.13312 14.995 3.6715 15.5333 4.33312 15.5333V15.1333C3.89225 15.1333 3.53312 14.774 3.53312 14.3339H3.13312ZM4.33312 15.5333C4.99482 15.5333 5.53312 14.995 5.53312 14.3333H5.13312C5.13312 14.774 4.77391 15.1333 4.33312 15.1333V15.5333ZM5.53312 14.3333V13.6664H5.13312V14.3333H5.53312ZM5.53312 13.6664C5.53312 13.5933 5.59271 13.5333 5.66686 13.5333V13.1333C5.37228 13.1333 5.13312 13.3719 5.13312 13.6664H5.53312ZM5.66686 13.5333H15.6669V13.1333H5.66686V13.5333ZM15.6669 13.5333C15.7402 13.5333 15.8 13.5931 15.8 13.6664H16.2C16.2 13.3722 15.9611 13.1333 15.6669 13.1333V13.5333ZM15.8 13.6664V14.3333H16.2V13.6664H15.8ZM15.8 14.3333C15.8 15.1421 15.1414 15.8001 14.3331 15.8001V16.2001C15.3623 16.2001 16.2 15.3631 16.2 14.3333H15.8ZM14.512 16.0896L14.512 16.0895L14.1542 15.9107L14.1542 15.9107L14.512 16.0896ZM5.66624 15.5332H14.3331V15.1332H5.66624V15.5332ZM14.3331 15.5332C14.9948 15.5332 15.5331 14.9949 15.5331 14.3332H15.1331C15.1331 14.774 14.7739 15.1332 14.3331 15.1332V15.5332ZM15.5331 14.3332V14.0001H15.1331V14.3332H15.5331ZM15.3331 13.8001H6V14.2001H15.3331V13.8001ZM5.8 14.0001V14.3332H6.2V14.0001H5.8ZM5.8 14.3332C5.8 14.6638 5.69072 14.9676 5.50634 15.2131L5.82617 15.4533C6.06053 15.1413 6.2 14.7539 6.2 14.3332H5.8ZM5.66626 15.1332H5.66624V15.5332H5.66626V15.1332ZM0.66688 2.20011H2.66688V1.80011H0.66688V2.20011ZM2.86688 2.00011V1.66699H2.46688V2.00011H2.86688ZM2.86688 1.66699C2.86688 1.00528 2.32858 0.466986 1.66688 0.466986V0.866986C2.10767 0.866986 2.46688 1.22619 2.46688 1.66699H2.86688ZM1.66688 0.466986C1.00518 0.466986 0.46688 1.00528 0.46688 1.66699H0.86688C0.86688 1.22619 1.22609 0.866986 1.66688 0.866986V0.466986ZM0.46688 1.66699V2.00011H0.86688V1.66699H0.46688Z" fill="#213F7D" mask="url(#path-3-outside-1_101124_708)"/>
<path d="M9.74168 11.4332H9.66691C9.55403 11.4332 9.44364 11.3893 9.3603 11.3067L9.35994 11.3064C9.24383 11.1903 9.20316 11.0188 9.25516 10.8628L9.25516 10.8628L9.92204 8.86279C9.92204 8.86279 9.92204 8.86279 9.92204 8.86278C9.94306 8.79974 9.97871 8.74109 10.0271 8.6934C10.0272 8.6933 10.0273 8.6932 10.0274 8.6931L13.7504 4.97012L13.7505 4.97002L13.8212 5.04074C14.3025 4.55824 15.1412 4.56011 15.6219 5.04074L9.74168 11.4332ZM9.74168 11.4332L9.74372 11.4262M9.74168 11.4332L9.74372 11.4262M9.74372 11.4262C9.76371 11.4226 9.78354 11.4177 9.80303 11.4113L9.80356 11.4111L11.8035 10.7442C11.8036 10.7442 11.8036 10.7442 11.8036 10.7442C11.8672 10.723 11.9249 10.6872 11.9726 10.6394L15.6963 6.91577C15.6963 6.91577 15.6963 6.91577 15.6963 6.91577L9.74372 11.4262ZM15.0838 6.30297L15.0837 6.30306L11.4323 9.95452L10.3519 10.3145L10.7118 9.2347L14.3633 5.58261C14.5536 5.39229 14.8859 5.38853 15.0837 5.58636L15.0838 5.58645C15.2815 5.78363 15.2815 6.10579 15.0838 6.30297Z" fill="#213F7D" stroke="#213F7D" stroke-width="0.2"/>
<path d="M11.3602 10.6405L11.3599 10.6402L11.3599 10.6402L10.0268 9.30706C9.85774 9.13801 9.85774 8.86344 10.0268 8.69439C10.1958 8.52534 10.4704 8.52534 10.6395 8.69439L11.9726 10.0275C12.1416 10.1966 12.1416 10.4711 11.9726 10.6402C11.8889 10.7239 11.7776 10.767 11.6669 10.767L11.3602 10.6405ZM11.3602 10.6405C11.4452 10.7246 11.5557 10.767 11.6669 10.767L11.3602 10.6405Z" fill="#213F7D" stroke="#213F7D" stroke-width="0.2"/>
<path d="M6.33374 3.43311H9.66686C9.90584 3.43311 10.1 3.23896 10.1 2.99999C10.1 2.76089 9.90571 2.56687 9.66624 2.56687H6.33312C6.09415 2.56687 5.9 2.76102 5.9 2.99999C5.9 3.23909 6.09427 3.43311 6.33374 3.43311Z" fill="#213F7D" stroke="#213F7D" stroke-width="0.2"/>
<path d="M4.99999 5.43311H11C11.239 5.43311 11.4331 5.23896 11.4331 4.99999C11.4331 4.76102 11.239 4.56687 11 4.56687H4.99999C4.76102 4.56687 4.56687 4.76102 4.56687 4.99999C4.56687 5.23896 4.76102 5.43311 4.99999 5.43311Z" fill="#213F7D" stroke="#213F7D" stroke-width="0.2"/>
<path d="M4.99999 7.43311H10.3331C10.5725 7.43311 10.767 7.23908 10.7662 6.99965L10.6662 6.99999H10.7662C10.7662 6.76102 10.5721 6.56687 10.3331 6.56687H4.99999C4.76102 6.56687 4.56687 6.76102 4.56687 6.99999C4.56687 7.23896 4.76102 7.43311 4.99999 7.43311Z" fill="#213F7D" stroke="#213F7D" stroke-width="0.2"/>
<path d="M4.99999 9.43311H8.99999C9.23896 9.43311 9.43311 9.23897 9.43311 8.99999C9.43311 8.76102 9.23896 8.56687 8.99999 8.56687H4.99999C4.76102 8.56687 4.56687 8.76102 4.56687 8.99999C4.56687 9.23897 4.76102 9.43311 4.99999 9.43311Z" fill="#213F7D" stroke="#213F7D" stroke-width="0.2"/>
</g>
<defs>
<clipPath id="clip0_101124_708">
<rect width="16" height="16" fill="white"/>
</clipPath>
</defs>
</svg>
