<svg width="16" height="16" viewBox="0 0 16 16" fill="none" xmlns="http://www.w3.org/2000/svg">
<g clip-path="url(#clip0_101124_660)">
<path d="M1.8033 2.89997C1.62935 3.05805 1.61822 3.32723 1.77575 3.49981L1.77581 3.49988L5.48829 7.56052L5.48849 7.56074C5.93447 8.04622 6.53497 8.31554 7.17743 8.31554H7.17858C7.8211 8.31554 8.42097 8.04616 8.86751 7.5601L8.86772 7.55987L12.574 3.50547L12.5742 3.5052C12.7327 3.33072 12.7189 3.06473 12.5471 2.90616L12.5471 2.90616L12.5463 2.90546C12.3738 2.74887 12.1064 2.75943 11.9471 2.93284L11.9469 2.93307L8.24288 6.98652C8.24284 6.98657 8.2428 6.98661 8.24276 6.98665C7.67486 7.6039 6.68123 7.60327 6.11452 6.98728C6.11448 6.98724 6.11444 6.98719 6.1144 6.98715L2.40286 2.92812C2.40284 2.9281 2.40283 2.92808 2.40281 2.92806C2.24447 2.75474 1.97557 2.74291 1.8033 2.89997ZM1.8033 2.89997C1.80326 2.90001 1.80323 2.90004 1.80319 2.90007L1.88744 2.99241L1.8034 2.89988C1.80337 2.89991 1.80333 2.89994 1.8033 2.89997Z" fill="#213F7D" stroke="#213F7D" stroke-width="0.25"/>
<path d="M1.80328 9.4822L1.80327 9.48221C1.62994 9.6405 1.61799 9.90946 1.77577 10.0818C1.85781 10.1724 1.97074 10.2192 2.08333 10.2207L2.08332 10.2208H2.08944C2.19263 10.2208 2.29369 10.1822 2.37398 10.1114L2.37399 10.1114L2.37561 10.11L5.63903 7.12892C5.63907 7.12888 5.63912 7.12883 5.63917 7.12879C5.81306 6.97072 5.82421 6.70219 5.66668 6.52962L5.66666 6.52959C5.50882 6.35676 5.24025 6.3425 5.06671 6.50243C5.06663 6.50251 5.06654 6.50258 5.06646 6.50266L1.80328 9.4822Z" fill="#213F7D" stroke="#213F7D" stroke-width="0.25"/>
<path d="M11.0042 9.0676H11.1292V9.04866C11.1992 9.02694 11.2645 8.98657 11.3169 8.92768C11.4762 8.75414 11.4617 8.48749 11.29 8.32988L11.2897 8.32964L9.28631 6.50108C9.28626 6.50104 9.28621 6.50099 9.28617 6.50095C9.11283 6.34198 8.84643 6.35531 8.68784 6.52799C8.52795 6.70208 8.54275 6.96988 8.71415 7.12714L8.71437 7.12735L10.7181 8.95679C10.7996 9.03124 10.9019 9.0676 11.0042 9.0676Z" fill="#213F7D" stroke="#213F7D" stroke-width="0.25"/>
<path d="M11.0897 15.11L11.0897 15.11C10.969 15.0704 10.8737 14.981 10.8256 14.8637L10.8248 14.8619L10.8248 14.8619L10.4678 13.9519L9.49 13.8935L9.4886 13.8935L9.4886 13.8935L11.0897 15.11ZM11.0897 15.11L11.0913 15.1105C11.2115 15.1483 11.3425 15.1319 11.4492 15.0634L11.4489 15.0636L11.3818 14.9582L11.4493 15.0634M11.0897 15.11L11.4493 15.0634M14.0827 13.9531L15.0594 13.8942L13.3306 15.0056L13.3299 15.005M14.0827 13.9531L14.1119 13.8789L13.9956 13.8331L14.0031 13.9579L14.0827 13.9531ZM14.0827 13.9531L13.725 14.8632L13.7246 14.8642C13.677 14.9823 13.5804 15.0722 13.4595 15.1104L13.4591 15.1106C13.4179 15.1234 13.3741 15.1306 13.3306 15.1306H13.2795L13.2756 15.1268M13.2756 15.1268C13.2939 15.129 13.312 15.13 13.3299 15.13V15.0063V15.005M13.2756 15.1268L13.2431 15.0949L13.2424 15.0943L13.3299 15.005M13.2756 15.1268C13.2163 15.1197 13.1559 15.1002 13.1005 15.0636M13.3299 15.005C13.2737 15.005 13.2174 14.9913 13.1687 14.9588M13.1687 14.9588L13.1015 15.0642L13.1005 15.0636M13.1687 14.9588L12.2756 14.3894M13.1687 14.9588L13.0994 15.0628C13.0998 15.063 13.1001 15.0633 13.1005 15.0636M13.1005 15.0636L12.2755 14.5376M12.2756 14.3894L12.3427 14.4949L12.2755 14.5376M12.2756 14.3894L12.2084 14.4948L12.2755 14.5376M12.2756 14.3894L11.4493 15.0634M12.2755 14.5376L11.4493 15.0634M12.5027 13.676L12.5034 13.6765L13.1231 14.0718L13.392 13.3901C13.3921 13.3899 13.3922 13.3897 13.3923 13.3895C13.452 13.2352 13.5967 13.1304 13.7624 13.1221L14.495 13.0765L14.3121 12.3647C14.3121 12.3647 14.3121 12.3646 14.3121 12.3645C14.2702 12.2039 14.3276 12.0359 14.4526 11.932L14.4529 11.9318L15.0203 11.4633L14.453 10.9959L14.4525 10.9956C14.3275 10.8917 14.2702 10.725 14.312 10.5632M12.5027 13.676L15.1185 11.3822L14.5324 10.8994C14.4437 10.8257 14.4037 10.7082 14.4331 10.5944L14.622 9.85895L14.495 9.85105M12.5027 13.676C12.4344 13.6332 12.3552 13.61 12.2756 13.61C12.1957 13.61 12.1171 13.6333 12.0491 13.676L12.0483 13.6765L11.4287 14.0718L12.5027 13.676ZM14.312 10.5632L14.433 10.5944L14.312 10.5633L14.312 10.5632ZM14.312 10.5632L14.495 9.85105M14.495 9.85105L14.5267 9.72778M14.495 9.85105L13.7616 9.80544L13.7613 9.80542C13.5965 9.79479 13.4546 9.69033 13.393 9.5399L13.3924 9.53843L13.3924 9.53842L13.123 8.85558L12.5034 9.24987C12.5033 9.24988 12.5033 9.24989 12.5033 9.2499C12.3642 9.33846 12.1869 9.33845 12.0478 9.24987M14.5267 9.72778L12.4362 9.14444C12.3381 9.20694 12.2131 9.20694 12.115 9.14444L11.4749 8.73715L11.4281 8.85558M14.5267 9.72778L13.7693 9.68068C13.6531 9.67318 13.5524 9.59943 13.5087 9.49255L14.5267 9.72778ZM12.0478 9.24987L12.1148 9.14463L12.0478 9.2499L12.0478 9.24987ZM12.0478 9.24987L11.4281 8.85558M11.4281 8.85558L11.3207 8.78723L11.0425 9.49255M11.4281 8.85558L11.1589 9.53799M11.1589 9.53799C11.159 9.53781 11.159 9.53764 11.1591 9.53747L11.0425 9.49255M11.1589 9.53799L11.1587 9.53842L11.0425 9.49255M11.1589 9.53799C11.0993 9.69225 10.9547 9.79712 10.7894 9.80549M11.0425 9.49255C11.0006 9.6013 10.8987 9.67505 10.7825 9.68068M10.7825 9.68068L10.7902 9.80544L10.7894 9.80549M10.7825 9.68068L10.0251 9.72778L10.0568 9.85105M10.7825 9.68068L10.7885 9.80553C10.7888 9.80552 10.7891 9.8055 10.7894 9.80549M10.7894 9.80549L10.0568 9.85105M10.0568 9.85105L9.9298 9.85895L10.0193 10.8982L10.0989 10.9946C10.2252 10.8904 10.2815 10.7221 10.2397 10.5618L10.2398 10.562L10.1187 10.5932L10.2397 10.5616L10.0568 9.85105ZM9.10499 13.3657C9.07407 13.4885 9.09893 13.6172 9.17308 13.7196L15.06 13.8942L15.0598 13.8942C15.1861 13.887 15.3031 13.8235 15.3772 13.7205C15.4538 13.6167 15.4761 13.4877 15.4455 13.3664L15.4454 13.3657L15.2008 12.4182L15.9551 11.7939C16.0559 11.7131 16.1112 11.5914 16.1112 11.4669C16.1112 11.3365 16.0514 11.2207 15.9569 11.1408L15.9569 11.1408L15.9558 11.1399L15.2008 10.5161L15.4454 9.56747L15.4455 9.56679C15.4763 9.44458 15.4526 9.31555 15.377 9.21239L15.2762 9.28627L15.3774 9.21296C15.3019 9.1087 15.1855 9.04863 15.062 9.03914L15.062 9.03912L15.0599 9.03899L14.0833 8.98063L13.725 8.07049L13.7248 8.06999C13.678 7.95265 13.5822 7.86194 13.4607 7.82289L13.4607 7.82289L13.4594 7.82249C13.3398 7.78549 13.2093 7.79919 13.1012 7.86921C13.101 7.86934 13.1008 7.86947 13.1006 7.8696L12.2756 8.39381L11.4495 7.8689L11.4495 7.8689L11.4483 7.86816C11.3425 7.80259 11.2123 7.78458 11.0917 7.82272L11.0914 7.82281C10.9686 7.86195 10.8739 7.9529 10.8266 8.06925L10.8266 8.06925L10.8261 8.07055L10.4684 8.98062L9.49 9.03899L9.49 9.03898L9.4886 9.03908C9.36656 9.04774 9.24754 9.10822 9.17288 9.21324C9.09763 9.31646 9.07436 9.44641 9.10499 9.56804L9.10499 9.56804L9.10516 9.56872L9.34909 10.515L8.59443 11.1396C8.4956 11.22 8.43994 11.3395 8.43994 11.4663C8.43994 11.5944 8.49897 11.7125 8.59315 11.7919L8.59314 11.7919L8.59399 11.7926L9.34911 12.4176L9.10515 13.3651L9.10499 13.3657ZM14.4331 12.3331C14.4037 12.2207 14.4437 12.1019 14.5324 12.0282L14.4331 12.3331Z" fill="#213F7D" stroke="#213F7D" stroke-width="0.25"/>
<path d="M10.655 11.4624C10.655 12.3552 11.3822 13.0831 12.2757 13.0831C13.1698 13.0831 13.8963 12.3551 13.8963 11.4624C13.8963 10.5684 13.169 9.8418 12.2757 9.8418C11.3823 9.8418 10.655 10.5684 10.655 11.4624ZM11.5032 11.4631C11.5032 11.0366 11.8502 10.6906 12.2757 10.6906C12.7022 10.6906 13.0482 11.0371 13.0482 11.4631C13.0482 11.8884 12.701 12.2356 12.2757 12.2356C11.8498 12.2356 11.5032 11.8879 11.5032 11.4631Z" fill="#213F7D" stroke="#213F7D" stroke-width="0.25"/>
<path d="M1.49563 11.8869H8.67066L8.67003 11.8876H8.97181C9.20602 11.8876 9.39618 11.6964 9.39618 11.4632C9.39618 11.229 9.20504 11.0388 8.97181 11.0388H1.49501C1.06915 11.0388 0.722504 10.6911 0.722504 10.2663V2.49063C0.722504 2.06471 1.06962 1.71812 1.49501 1.71812H12.8593C13.2847 1.71812 13.6318 2.06529 13.6318 2.49063V9.36935C13.6318 9.60356 13.823 9.79372 14.0562 9.79372C14.2904 9.79372 14.4806 9.60258 14.4806 9.36935V2.49063C14.4806 1.59717 13.7527 0.869995 12.86 0.869995H1.49563C0.602211 0.869995 -0.125 1.59722 -0.125 2.49063V10.2663C-0.125 11.1591 0.602195 11.8869 1.49563 11.8869Z" fill="#213F7D" stroke="#213F7D" stroke-width="0.25"/>
</g>
<defs>
<clipPath id="clip0_101124_660">
<rect width="16" height="16" fill="white"/>
</clipPath>
</defs>
</svg>
