<svg width="18" height="18" viewBox="0 0 18 18" fill="none" xmlns="http://www.w3.org/2000/svg">
<mask id="path-1-outside-1_101124_804" maskUnits="userSpaceOnUse" x="0.445679" y="-0.0999756" width="17" height="18" fill="black">
<rect fill="white" x="0.445679" y="-0.0999756" width="17" height="18"/>
<path d="M14.9879 8.25047C14.9893 8.19844 14.9928 8.14711 14.9928 8.09508C14.9928 6.14676 13.8875 4.32282 12.2507 3.30258C12.4574 2.62618 12.6276 1.92727 12.8132 1.24104C12.835 1.16018 12.8181 1.073 12.7668 1.0062C12.7162 0.939399 12.6367 0.900024 12.5524 0.900024H9.46139C9.37702 0.900024 9.29827 0.939399 9.24694 1.0062C9.19561 1.07299 9.17874 1.15948 9.20053 1.24104L9.7567 3.30474C8.06286 4.33974 7.01944 6.15666 7.01944 8.09508C7.01944 8.46493 7.056 8.82984 7.12913 9.18563H7.02999C6.61865 9.18563 6.22843 9.34172 5.931 9.62578L4.70896 10.7944C4.54443 10.7079 4.36021 10.6615 4.16755 10.6615C3.8617 10.6615 3.57341 10.7789 3.35615 10.9912L1.7938 12.5205C1.57302 12.7364 1.44927 13.0268 1.44576 13.3376C1.44224 13.6484 1.55966 13.9409 1.77552 14.1616L4.31244 16.7533C4.53182 16.9762 4.82643 17.0999 5.14213 17.0999C5.44798 17.0999 5.73627 16.9825 5.95353 16.7702L7.51588 15.2409C7.73667 15.025 7.86042 14.7346 7.86393 14.4238C7.86603 14.2396 7.82455 14.0624 7.7465 13.9021L7.80768 13.8564C8.11494 13.6286 8.47917 13.5084 8.86026 13.5084H11.2663C11.8745 13.5084 12.4673 13.2988 12.9362 12.9185L14.2757 11.8342C14.3277 11.7991 14.3783 11.759 14.4297 11.7098C14.4318 11.7084 14.4325 11.7063 14.4346 11.7049C14.4416 11.6978 14.4501 11.6922 14.4571 11.6845L16.3478 9.66938C16.4821 9.52524 16.5559 9.33749 16.5559 9.14063C16.5559 8.92968 16.468 8.72508 16.3126 8.57602C15.9449 8.23361 15.4415 8.12813 14.988 8.25047L14.9879 8.25047ZM12.2001 1.43999L11.7346 3.16194H10.2777L9.81366 1.43999H12.2001ZM7.55949 8.09441C7.55949 6.30356 8.55019 4.62725 10.1463 3.70205H11.8633C13.4615 4.62525 14.453 6.30143 14.453 8.09441C14.453 8.24699 14.4438 8.39886 14.4291 8.54862C14.396 8.57745 14.3644 8.60769 14.3334 8.64003L13.4313 9.60262L13.2344 9.72145C13.233 9.72215 13.2323 9.72355 13.2309 9.72426C13.2295 9.72496 13.2281 9.72566 13.2267 9.72637L12.6291 10.1145C12.4434 9.90847 12.1762 9.77839 11.8781 9.77839L9.79965 9.77909L9.37145 9.47674C9.10215 9.28549 8.78435 9.18424 8.45387 9.18424H7.68325C7.60239 8.83128 7.5595 8.46565 7.5595 8.0944L7.55949 8.09441ZM7.1376 14.855L5.57526 16.3843C5.33971 16.6149 4.92837 16.6107 4.69846 16.3752L2.16154 13.7828C2.04623 13.6654 1.98365 13.5086 1.98576 13.342C1.98787 13.1753 2.05326 13.0206 2.17067 12.9053L3.73302 11.376C3.84903 11.2628 4.00302 11.2003 4.16685 11.2003C4.3356 11.2003 4.4931 11.2663 4.61052 11.3852L7.14744 13.9768C7.26275 14.0942 7.32533 14.251 7.32322 14.4177C7.32181 14.5843 7.25572 14.7397 7.1376 14.855V14.855ZM15.952 9.30167L14.0746 11.3027L13.9284 11.4209C13.9206 11.4265 13.9129 11.4328 13.9059 11.4391L12.5953 12.5001C12.2219 12.8032 11.7494 12.9691 11.2649 12.9691H8.85889C8.3681 12.9691 7.88014 13.1302 7.48428 13.4233L7.41256 13.4768L5.12602 11.1409L6.30306 10.0152C6.49923 9.82819 6.75657 9.72483 7.02868 9.72483H8.45322C8.66837 9.72483 8.88282 9.79304 9.05861 9.91819L9.55712 10.2697C9.55782 10.2705 9.55853 10.2704 9.55993 10.2712C9.57048 10.2782 9.58173 10.2838 9.59298 10.2894C9.5972 10.2915 9.60212 10.2944 9.60634 10.2965C9.61688 10.3007 9.62743 10.3035 9.63798 10.307C9.64431 10.3091 9.65063 10.3112 9.65696 10.3126C9.6647 10.314 9.67243 10.3147 9.68017 10.3154C9.69001 10.3169 9.70056 10.3183 9.7104 10.3183C9.71181 10.3183 9.71251 10.319 9.71321 10.319L11.8774 10.3183C12.1375 10.3183 12.3492 10.5299 12.3492 10.7901C12.3492 11.0502 12.1375 11.2619 11.8774 11.2619H9.39245C9.24339 11.2619 9.12245 11.3828 9.12245 11.5319C9.12245 11.6809 9.24339 11.8019 9.39245 11.8019H11.8781C12.4364 11.8019 12.8899 11.3476 12.8899 10.7901C12.8899 10.7254 12.8835 10.6621 12.8716 10.6002L13.5192 10.1791L13.7407 10.0455C13.7604 10.0335 13.7772 10.0187 13.7927 10.0033C13.7948 10.0012 13.7969 10.0005 13.799 9.99905L14.7271 9.00905C14.7658 8.96756 14.8087 8.9317 14.853 8.89936C14.8537 8.89866 14.8544 8.89795 14.8558 8.89725C15.1821 8.66521 15.6391 8.68561 15.94 8.96756C15.9885 9.01397 16.0146 9.07514 16.0146 9.13983C16.0146 9.18342 16.004 9.246 15.952 9.30155L15.952 9.30167Z"/>
</mask>
<path d="M14.9879 8.25047C14.9893 8.19844 14.9928 8.14711 14.9928 8.09508C14.9928 6.14676 13.8875 4.32282 12.2507 3.30258C12.4574 2.62618 12.6276 1.92727 12.8132 1.24104C12.835 1.16018 12.8181 1.073 12.7668 1.0062C12.7162 0.939399 12.6367 0.900024 12.5524 0.900024H9.46139C9.37702 0.900024 9.29827 0.939399 9.24694 1.0062C9.19561 1.07299 9.17874 1.15948 9.20053 1.24104L9.7567 3.30474C8.06286 4.33974 7.01944 6.15666 7.01944 8.09508C7.01944 8.46493 7.056 8.82984 7.12913 9.18563H7.02999C6.61865 9.18563 6.22843 9.34172 5.931 9.62578L4.70896 10.7944C4.54443 10.7079 4.36021 10.6615 4.16755 10.6615C3.8617 10.6615 3.57341 10.7789 3.35615 10.9912L1.7938 12.5205C1.57302 12.7364 1.44927 13.0268 1.44576 13.3376C1.44224 13.6484 1.55966 13.9409 1.77552 14.1616L4.31244 16.7533C4.53182 16.9762 4.82643 17.0999 5.14213 17.0999C5.44798 17.0999 5.73627 16.9825 5.95353 16.7702L7.51588 15.2409C7.73667 15.025 7.86042 14.7346 7.86393 14.4238C7.86603 14.2396 7.82455 14.0624 7.7465 13.9021L7.80768 13.8564C8.11494 13.6286 8.47917 13.5084 8.86026 13.5084H11.2663C11.8745 13.5084 12.4673 13.2988 12.9362 12.9185L14.2757 11.8342C14.3277 11.7991 14.3783 11.759 14.4297 11.7098C14.4318 11.7084 14.4325 11.7063 14.4346 11.7049C14.4416 11.6978 14.4501 11.6922 14.4571 11.6845L16.3478 9.66938C16.4821 9.52524 16.5559 9.33749 16.5559 9.14063C16.5559 8.92968 16.468 8.72508 16.3126 8.57602C15.9449 8.23361 15.4415 8.12813 14.988 8.25047L14.9879 8.25047ZM12.2001 1.43999L11.7346 3.16194H10.2777L9.81366 1.43999H12.2001ZM7.55949 8.09441C7.55949 6.30356 8.55019 4.62725 10.1463 3.70205H11.8633C13.4615 4.62525 14.453 6.30143 14.453 8.09441C14.453 8.24699 14.4438 8.39886 14.4291 8.54862C14.396 8.57745 14.3644 8.60769 14.3334 8.64003L13.4313 9.60262L13.2344 9.72145C13.233 9.72215 13.2323 9.72355 13.2309 9.72426C13.2295 9.72496 13.2281 9.72566 13.2267 9.72637L12.6291 10.1145C12.4434 9.90847 12.1762 9.77839 11.8781 9.77839L9.79965 9.77909L9.37145 9.47674C9.10215 9.28549 8.78435 9.18424 8.45387 9.18424H7.68325C7.60239 8.83128 7.5595 8.46565 7.5595 8.0944L7.55949 8.09441ZM7.1376 14.855L5.57526 16.3843C5.33971 16.6149 4.92837 16.6107 4.69846 16.3752L2.16154 13.7828C2.04623 13.6654 1.98365 13.5086 1.98576 13.342C1.98787 13.1753 2.05326 13.0206 2.17067 12.9053L3.73302 11.376C3.84903 11.2628 4.00302 11.2003 4.16685 11.2003C4.3356 11.2003 4.4931 11.2663 4.61052 11.3852L7.14744 13.9768C7.26275 14.0942 7.32533 14.251 7.32322 14.4177C7.32181 14.5843 7.25572 14.7397 7.1376 14.855V14.855ZM15.952 9.30167L14.0746 11.3027L13.9284 11.4209C13.9206 11.4265 13.9129 11.4328 13.9059 11.4391L12.5953 12.5001C12.2219 12.8032 11.7494 12.9691 11.2649 12.9691H8.85889C8.3681 12.9691 7.88014 13.1302 7.48428 13.4233L7.41256 13.4768L5.12602 11.1409L6.30306 10.0152C6.49923 9.82819 6.75657 9.72483 7.02868 9.72483H8.45322C8.66837 9.72483 8.88282 9.79304 9.05861 9.91819L9.55712 10.2697C9.55782 10.2705 9.55853 10.2704 9.55993 10.2712C9.57048 10.2782 9.58173 10.2838 9.59298 10.2894C9.5972 10.2915 9.60212 10.2944 9.60634 10.2965C9.61688 10.3007 9.62743 10.3035 9.63798 10.307C9.64431 10.3091 9.65063 10.3112 9.65696 10.3126C9.6647 10.314 9.67243 10.3147 9.68017 10.3154C9.69001 10.3169 9.70056 10.3183 9.7104 10.3183C9.71181 10.3183 9.71251 10.319 9.71321 10.319L11.8774 10.3183C12.1375 10.3183 12.3492 10.5299 12.3492 10.7901C12.3492 11.0502 12.1375 11.2619 11.8774 11.2619H9.39245C9.24339 11.2619 9.12245 11.3828 9.12245 11.5319C9.12245 11.6809 9.24339 11.8019 9.39245 11.8019H11.8781C12.4364 11.8019 12.8899 11.3476 12.8899 10.7901C12.8899 10.7254 12.8835 10.6621 12.8716 10.6002L13.5192 10.1791L13.7407 10.0455C13.7604 10.0335 13.7772 10.0187 13.7927 10.0033C13.7948 10.0012 13.7969 10.0005 13.799 9.99905L14.7271 9.00905C14.7658 8.96756 14.8087 8.9317 14.853 8.89936C14.8537 8.89866 14.8544 8.89795 14.8558 8.89725C15.1821 8.66521 15.6391 8.68561 15.94 8.96756C15.9885 9.01397 16.0146 9.07514 16.0146 9.13983C16.0146 9.18342 16.004 9.246 15.952 9.30155L15.952 9.30167Z" fill="#213F7D"/>
<path d="M14.9879 8.25047C14.9893 8.19844 14.9928 8.14711 14.9928 8.09508C14.9928 6.14676 13.8875 4.32282 12.2507 3.30258C12.4574 2.62618 12.6276 1.92727 12.8132 1.24104C12.835 1.16018 12.8181 1.073 12.7668 1.0062C12.7162 0.939399 12.6367 0.900024 12.5524 0.900024H9.46139C9.37702 0.900024 9.29827 0.939399 9.24694 1.0062C9.19561 1.07299 9.17874 1.15948 9.20053 1.24104L9.7567 3.30474C8.06286 4.33974 7.01944 6.15666 7.01944 8.09508C7.01944 8.46493 7.056 8.82984 7.12913 9.18563H7.02999C6.61865 9.18563 6.22843 9.34172 5.931 9.62578L4.70896 10.7944C4.54443 10.7079 4.36021 10.6615 4.16755 10.6615C3.8617 10.6615 3.57341 10.7789 3.35615 10.9912L1.7938 12.5205C1.57302 12.7364 1.44927 13.0268 1.44576 13.3376C1.44224 13.6484 1.55966 13.9409 1.77552 14.1616L4.31244 16.7533C4.53182 16.9762 4.82643 17.0999 5.14213 17.0999C5.44798 17.0999 5.73627 16.9825 5.95353 16.7702L7.51588 15.2409C7.73667 15.025 7.86042 14.7346 7.86393 14.4238C7.86603 14.2396 7.82455 14.0624 7.7465 13.9021L7.80768 13.8564C8.11494 13.6286 8.47917 13.5084 8.86026 13.5084H11.2663C11.8745 13.5084 12.4673 13.2988 12.9362 12.9185L14.2757 11.8342C14.3277 11.7991 14.3783 11.759 14.4297 11.7098C14.4318 11.7084 14.4325 11.7063 14.4346 11.7049C14.4416 11.6978 14.4501 11.6922 14.4571 11.6845L16.3478 9.66938C16.4821 9.52524 16.5559 9.33749 16.5559 9.14063C16.5559 8.92968 16.468 8.72508 16.3126 8.57602C15.9449 8.23361 15.4415 8.12813 14.988 8.25047L14.9879 8.25047ZM12.2001 1.43999L11.7346 3.16194H10.2777L9.81366 1.43999H12.2001ZM7.55949 8.09441C7.55949 6.30356 8.55019 4.62725 10.1463 3.70205H11.8633C13.4615 4.62525 14.453 6.30143 14.453 8.09441C14.453 8.24699 14.4438 8.39886 14.4291 8.54862C14.396 8.57745 14.3644 8.60769 14.3334 8.64003L13.4313 9.60262L13.2344 9.72145C13.233 9.72215 13.2323 9.72355 13.2309 9.72426C13.2295 9.72496 13.2281 9.72566 13.2267 9.72637L12.6291 10.1145C12.4434 9.90847 12.1762 9.77839 11.8781 9.77839L9.79965 9.77909L9.37145 9.47674C9.10215 9.28549 8.78435 9.18424 8.45387 9.18424H7.68325C7.60239 8.83128 7.5595 8.46565 7.5595 8.0944L7.55949 8.09441ZM7.1376 14.855L5.57526 16.3843C5.33971 16.6149 4.92837 16.6107 4.69846 16.3752L2.16154 13.7828C2.04623 13.6654 1.98365 13.5086 1.98576 13.342C1.98787 13.1753 2.05326 13.0206 2.17067 12.9053L3.73302 11.376C3.84903 11.2628 4.00302 11.2003 4.16685 11.2003C4.3356 11.2003 4.4931 11.2663 4.61052 11.3852L7.14744 13.9768C7.26275 14.0942 7.32533 14.251 7.32322 14.4177C7.32181 14.5843 7.25572 14.7397 7.1376 14.855V14.855ZM15.952 9.30167L14.0746 11.3027L13.9284 11.4209C13.9206 11.4265 13.9129 11.4328 13.9059 11.4391L12.5953 12.5001C12.2219 12.8032 11.7494 12.9691 11.2649 12.9691H8.85889C8.3681 12.9691 7.88014 13.1302 7.48428 13.4233L7.41256 13.4768L5.12602 11.1409L6.30306 10.0152C6.49923 9.82819 6.75657 9.72483 7.02868 9.72483H8.45322C8.66837 9.72483 8.88282 9.79304 9.05861 9.91819L9.55712 10.2697C9.55782 10.2705 9.55853 10.2704 9.55993 10.2712C9.57048 10.2782 9.58173 10.2838 9.59298 10.2894C9.5972 10.2915 9.60212 10.2944 9.60634 10.2965C9.61688 10.3007 9.62743 10.3035 9.63798 10.307C9.64431 10.3091 9.65063 10.3112 9.65696 10.3126C9.6647 10.314 9.67243 10.3147 9.68017 10.3154C9.69001 10.3169 9.70056 10.3183 9.7104 10.3183C9.71181 10.3183 9.71251 10.319 9.71321 10.319L11.8774 10.3183C12.1375 10.3183 12.3492 10.5299 12.3492 10.7901C12.3492 11.0502 12.1375 11.2619 11.8774 11.2619H9.39245C9.24339 11.2619 9.12245 11.3828 9.12245 11.5319C9.12245 11.6809 9.24339 11.8019 9.39245 11.8019H11.8781C12.4364 11.8019 12.8899 11.3476 12.8899 10.7901C12.8899 10.7254 12.8835 10.6621 12.8716 10.6002L13.5192 10.1791L13.7407 10.0455C13.7604 10.0335 13.7772 10.0187 13.7927 10.0033C13.7948 10.0012 13.7969 10.0005 13.799 9.99905L14.7271 9.00905C14.7658 8.96756 14.8087 8.9317 14.853 8.89936C14.8537 8.89866 14.8544 8.89795 14.8558 8.89725C15.1821 8.66521 15.6391 8.68561 15.94 8.96756C15.9885 9.01397 16.0146 9.07514 16.0146 9.13983C16.0146 9.18342 16.004 9.246 15.952 9.30155L15.952 9.30167Z" stroke="#213F7D" stroke-width="0.6" mask="url(#path-1-outside-1_101124_804)"/>
</svg>
