<svg width="16" height="16" viewBox="0 0 16 16" fill="none" xmlns="http://www.w3.org/2000/svg">
<path d="M1.24956 4.05175H1.34956V4.0505H4.81612C5.06776 5.10393 6.01068 5.85306 7.10076 5.85306C8.19148 5.85306 9.13441 5.10401 9.38605 4.0505H14.7457C15.0492 4.0505 15.2951 3.80439 15.2951 3.5005C15.2951 3.19714 15.0491 2.95113 14.7457 2.95113H9.38605C9.1344 1.89768 8.19149 1.14792 7.10076 1.14792C6.01059 1.14792 5.06773 1.89762 4.81611 2.95113H1.24956C0.9454 2.95113 0.699561 3.19795 0.699561 3.50175C0.699561 3.80573 0.94558 4.05175 1.24956 4.05175ZM5.85078 3.50057C5.85135 2.81255 6.40808 2.254 7.09543 2.2505H7.10076C7.60663 2.2505 8.06261 2.55494 8.25587 3.02186L8.25589 3.02192C8.44976 3.48952 8.34271 4.02714 7.98506 4.38478C7.6274 4.74244 7.0898 4.84949 6.6222 4.65561L6.62214 4.65559C6.15524 4.46235 5.85081 4.00641 5.85078 3.50057Z" fill="#213F7D" stroke="#213F7D" stroke-width="0.2"/>
<path d="M14.8505 11.9603V11.9494H14.7505H7.13455C6.8829 10.8959 5.93996 10.1468 4.84927 10.1468C3.75914 10.1468 2.81625 10.8959 2.56462 11.9494H1.24932C0.945156 11.9494 0.699316 12.1962 0.699316 12.5C0.699316 12.8038 0.945155 13.0506 1.24932 13.0506H2.56462C2.81627 14.1041 3.75919 14.8532 4.84927 14.8532C5.93999 14.8532 6.88292 14.1041 7.13455 13.0506H14.7505C15.054 13.0506 15.2999 12.8045 15.2999 12.5006C15.2999 12.2314 15.1062 12.0074 14.8505 11.9603ZM6.09988 12.4993C6.0993 13.1873 5.54256 13.7459 4.85453 13.7494H4.84927C4.3435 13.7494 3.88808 13.445 3.69416 12.978C3.50087 12.5104 3.60796 11.9727 3.96559 11.6151L3.96565 11.615C4.32266 11.2575 4.86082 11.1504 5.32779 11.3443L5.32793 11.3443C5.79543 11.5376 6.09984 11.9935 6.09988 12.4993Z" fill="#213F7D" stroke="#213F7D" stroke-width="0.2"/>
<path d="M14.8506 7.46084V7.45051H14.7506H13.8853C13.6336 6.39646 12.6901 5.64731 11.6 5.64731C10.5099 5.64731 9.56635 6.39638 9.3147 7.45051H1.24944C0.945458 7.45051 0.699438 7.69653 0.699438 8.00051C0.699438 8.30431 0.945278 8.55114 1.24944 8.55114H9.31472C9.56639 9.60459 10.5099 10.3543 11.6 10.3543C12.6901 10.3543 13.6336 9.60467 13.8853 8.55114H14.7506C15.0539 8.55114 15.3 8.30512 15.3 8.00176C15.3 7.73207 15.1063 7.50789 14.8506 7.46084ZM11.6045 9.25051H11.6C11.0942 9.25051 10.6382 8.94552 10.4449 8.47852L10.4449 8.47847C10.251 8.01086 10.3581 7.47325 10.7157 7.11561C11.0734 6.75796 11.611 6.6509 12.0786 6.84478L12.0787 6.8448C12.5456 7.03806 12.8506 7.49401 12.8506 7.99974C12.8495 8.68874 12.2929 9.24689 11.6045 9.25051Z" fill="#213F7D" stroke="#213F7D" stroke-width="0.2"/>
</svg>
