<svg width="16" height="16" viewBox="0 0 16 16" fill="none" xmlns="http://www.w3.org/2000/svg">
<g clip-path="url(#clip0_101124_669)">
<path d="M11.2481 8.49682C9.41501 8.49682 7.92381 9.98807 7.92381 11.8218C7.92381 13.6549 9.41506 15.1461 11.2481 15.1461C13.0812 15.1461 14.5725 13.6549 14.5725 11.8218C14.5725 9.98871 13.0818 8.49682 11.2481 8.49682ZM11.2481 13.8469C10.1313 13.8469 9.22317 12.9381 9.22317 11.8219C9.22317 10.7051 10.1319 9.79634 11.2481 9.79634C12.365 9.79634 13.2737 10.7051 13.2737 11.8219C13.2737 12.9382 12.365 13.8469 11.2481 13.8469ZM4.75181 7.1213C6.58493 7.1213 8.07613 5.63005 8.07613 3.79634C8.07613 1.96322 6.58488 0.47202 4.75181 0.47202C2.91874 0.47202 1.42749 1.96327 1.42749 3.79634C1.42749 5.6301 2.91874 7.1213 4.75181 7.1213ZM4.75181 1.77122C5.86869 1.77122 6.77677 2.67997 6.77677 3.79618C6.77677 4.91306 5.86802 5.82178 4.75181 5.82178C3.63493 5.82178 2.72685 4.91303 2.72685 3.79618C2.72622 2.67992 3.63498 1.77122 4.75181 1.77122V1.77122ZM13.3813 0.119381C13.0881 -0.0881235 12.6831 -0.0181203 12.4756 0.275006L2.08122 14.975C1.87434 15.2681 1.94372 15.6731 2.23684 15.8806C2.35059 15.9613 2.48184 16 2.61121 16C2.81496 16 3.01558 15.9044 3.14184 15.725L13.5369 1.025C13.7438 0.731884 13.6744 0.326252 13.3813 0.119372V0.119381Z" fill="#213F7D"/>
</g>
<defs>
<clipPath id="clip0_101124_669">
<rect width="16" height="16" fill="white"/>
</clipPath>
</defs>
</svg>
