<svg width="16" height="16" viewBox="0 0 16 16" fill="none" xmlns="http://www.w3.org/2000/svg">
<path d="M14.3029 7.15224C13.4467 7.86429 12.295 8.12502 11.2093 7.84245L10.2521 8.79961L13.9158 12.4633C13.9945 12.542 14.0388 12.6487 14.0388 12.7603C14.0388 12.8719 13.9945 12.9784 13.9162 13.0575L13.7451 13.2303V13.2279L12.4452 14.5279C12.3664 14.6066 12.2598 14.6509 12.1482 14.6509C12.0366 14.6509 11.9299 14.6066 11.8512 14.5279L11.8512 14.5278L8.1875 10.8611L4.39393 14.653C4.39392 14.653 4.39392 14.653 4.39391 14.653C4.3152 14.7317 4.20853 14.776 4.09696 14.776C3.98538 14.776 3.87871 14.7317 3.8 14.653L2.32937 13.1824C2.25066 13.1036 2.20633 12.997 2.20633 12.8854C2.20633 12.7738 2.25066 12.6671 2.32937 12.5884L2.32941 12.5884L6.1219 8.80013L5.13994 7.82932C3.89883 8.36095 2.5334 8.07764 1.51998 7.06422L1.51988 7.06412C0.417149 5.95825 0.169458 4.45788 0.888677 3.14857L0.976324 3.19671L0.888418 3.14904C0.9519 3.03198 1.06703 2.9534 1.19773 2.93461L1.19825 2.93454L1.19825 2.93454C1.32825 2.91655 1.46035 2.95982 1.5541 3.05432C1.55414 3.05436 1.55418 3.0544 1.55422 3.05444L2.86771 4.36978L3.39734 4.36087L3.40625 3.8324L2.09249 2.5168L2.09245 2.51675L2.16321 2.44609C2.09321 2.37609 2.05946 2.27733 2.07196 2.17921C2.07821 2.13014 2.09571 2.08389 2.12235 2.04358L14.3029 7.15224ZM14.3029 7.15224L14.2994 7.17645L14.5126 6.96319C15.6303 5.84551 15.8228 4.28979 15.008 2.91338L14.8219 2.59911V2.74552C14.7834 2.7277 14.742 2.71561 14.6989 2.71012L14.6989 2.71011C14.5694 2.69373 14.4406 2.73801 14.3488 2.82981C14.3487 2.82983 14.3487 2.82984 14.3487 2.82986L14.3029 7.15224ZM7.10546 5.65631C7.41174 4.47944 7.07973 3.22514 6.22658 2.35362L6.22658 2.35362L6.22583 2.35287C5.10815 1.23519 3.55243 1.04268 2.17601 1.85753L1.86174 2.04358H2.00816L7.10546 5.65631ZM15.0219 3.14402V2.96495V2.96432H14.923L15.0219 3.14402ZM14.8219 2.85971C14.7816 2.83307 14.7354 2.81557 14.6863 2.80932L14.8219 2.85971ZM2.11386 6.46046C1.42992 5.77652 1.18574 4.90487 1.4066 4.08498L2.40093 5.08658L2.40119 5.08684C2.48136 5.16701 2.59106 5.21214 2.70521 5.21049L2.7055 5.21049L3.82471 5.19113C3.93594 5.19088 4.04224 5.14659 4.12074 5.06809C4.19926 4.98957 4.24356 4.88324 4.24378 4.77196L4.25972 3.75925H4.26048L4.26189 3.66069C4.26352 3.54759 4.2204 3.43765 4.13962 3.3568C4.13958 3.35676 4.13953 3.35671 4.13949 3.35667L3.12763 2.33746C4.02385 2.02008 4.93519 2.23014 5.65253 2.94628L5.66452 2.95825C5.99378 3.30559 6.22137 3.73673 6.32296 4.20484C6.42587 4.67909 6.39522 5.17255 6.23405 5.62989C6.17863 5.78217 6.21554 5.95246 6.3286 6.06795L6.32936 6.06873L13.0236 12.7599L12.1475 13.636L5.52343 7.01443C5.5234 7.0144 5.52337 7.01437 5.52334 7.01434C5.39285 6.88311 5.19106 6.85273 5.02763 6.9406L5.02749 6.94067C4.05458 7.4658 2.94023 7.2857 2.11386 6.46046ZM10.402 2.85307C11.0862 2.16888 11.9565 1.92326 12.7776 2.14564L11.7759 3.14015L11.7756 3.1404C11.6954 3.22057 11.6503 3.33027 11.652 3.44443L11.652 3.44472L11.6713 4.56299C11.6713 4.56329 11.6713 4.56359 11.6713 4.56389C11.6716 4.67513 11.7159 4.78145 11.7944 4.85995C11.8729 4.93844 11.9791 4.98273 12.0903 4.98299L13.2095 5.0036L13.2099 5.00361C13.3264 5.00526 13.4372 4.95552 13.5133 4.86808L14.53 3.85873C14.8472 4.75513 14.639 5.67605 13.9223 6.40996C13.2352 7.04022 12.1564 7.32587 11.2369 7.00121C11.0916 6.93846 10.9238 6.96282 10.802 7.06346L10.8332 7.105L10.7968 7.06861L9.65936 8.20607L8.78149 7.32928L9.67941 6.43137V6.43199L9.85012 6.26128C9.9814 6.13 10.0108 5.92897 9.92321 5.76527L9.92272 5.76438C9.3908 4.79399 9.57643 3.67866 10.402 2.85307ZM4.1026 13.761L3.22652 12.8849L6.72008 9.39381L7.59617 10.2699L4.1026 13.761Z" fill="#213F7D" stroke="#213F7D" stroke-width="0.2"/>
</svg>
