<svg width="17" height="17" viewBox="0 0 17 17" fill="none" xmlns="http://www.w3.org/2000/svg">
<path d="M6.076 9.41397C5.84462 9.16279 5.57236 8.94941 5.26971 8.78517C5.65711 8.41116 5.90402 7.89125 5.92059 7.31538C6.07573 7.96186 6.46828 8.517 7.00045 8.88342C6.66725 9.01899 6.35716 9.19905 6.076 9.41397ZM5.84765 6.69631C5.84765 6.69643 5.84765 6.69656 5.84765 6.69669C5.60227 5.79165 4.7736 5.124 3.79151 5.124C2.61666 5.124 1.66205 6.07923 1.66205 7.25346C1.66205 7.8539 1.91201 8.3978 2.31321 8.78521C1.34317 9.31184 0.682593 10.3399 0.682593 11.5194C0.682593 11.9425 1.02559 12.2848 1.44799 12.2848H4.50654C4.49758 12.3882 4.49239 12.4928 4.49239 12.5991C4.49239 13.0223 4.83532 13.3652 5.25845 13.3652H11.7417C12.1649 13.3652 12.5078 13.0223 12.5078 12.5991C12.5078 12.4924 12.5018 12.3877 12.4931 12.2848H15.5515C15.9745 12.2848 16.3176 11.9426 16.3176 11.5194C16.3176 10.3392 15.657 9.31178 14.687 8.78524C15.0883 8.39787 15.3389 7.85396 15.3389 7.25346C15.3389 6.0793 14.3837 5.124 13.2094 5.124C12.2277 5.124 11.3991 5.79159 11.1538 6.69665C11.1538 6.69654 11.1538 6.69642 11.1538 6.69631C11.1538 5.23324 9.96346 4.04359 8.50037 4.04359C7.03802 4.04359 5.84765 5.23319 5.84765 6.69631ZM11.0808 7.31508C11.0973 7.89103 11.3437 8.41107 11.7311 8.78518C11.4284 8.94947 11.1566 9.16288 10.9248 9.41403C10.6437 9.19908 10.3335 9.019 10.0003 8.88342C10.5326 8.51692 10.9256 7.9617 11.0808 7.31508ZM13.2089 8.51612H13.2088C12.511 8.51673 11.9449 7.95127 11.9449 7.2528C11.9449 6.55435 12.5111 5.98882 13.2089 5.98882C13.9067 5.98882 14.4729 6.555 14.4729 7.2528C14.4729 7.95056 13.9068 8.51612 13.2089 8.51612ZM3.79056 8.51612H3.79047C3.0927 8.51673 2.52658 7.95127 2.52658 7.2528C2.52658 6.55435 3.09272 5.98882 3.79056 5.98882C4.48901 5.98882 5.05453 6.55496 5.05453 7.2528C5.05453 7.95056 4.48842 8.51612 3.79056 8.51612ZM11.6162 12.1973C11.6283 12.2971 11.6364 12.3977 11.6397 12.4992H5.36052C5.36398 12.3978 5.37257 12.2972 5.38523 12.1974L5.29918 12.1865L5.38523 12.1974C5.41353 11.9743 5.46563 11.7587 5.53836 11.5528C5.65288 11.2292 5.8189 10.9299 6.02686 10.664C6.16786 10.4837 6.32814 10.3189 6.50444 10.1735C7.04767 9.72622 7.74254 9.45793 8.5007 9.45793C9.2589 9.45793 9.95377 9.72621 10.497 10.1735C10.673 10.3187 10.8327 10.4841 10.9746 10.6641C11.1826 10.93 11.3486 11.2293 11.4631 11.5528C11.5358 11.7587 11.5879 11.9748 11.6162 12.1973ZM6.71283 6.69632C6.71283 5.70961 7.51278 4.90898 8.50017 4.90898C9.48685 4.90898 10.2875 5.70957 10.2875 6.69632C10.2875 7.68365 9.48694 8.48366 8.50017 8.48366C7.51282 8.48366 6.71283 7.68374 6.71283 6.69632ZM1.5506 11.4195C1.60293 10.2275 2.58637 9.27669 3.79118 9.27669C4.44817 9.27669 5.03788 9.55962 5.44803 10.0097C5.10116 10.4177 4.83478 10.8964 4.67348 11.4201L1.5506 11.4195ZM15.4495 11.4188L12.3272 11.4194C12.1654 10.8958 11.8996 10.4171 11.5528 10.009C11.963 9.55891 12.5527 9.27599 13.2089 9.27599C14.4144 9.27599 15.3972 10.2268 15.4495 11.4188Z" fill="#213F7D" stroke="#213F7D" stroke-width="0.2"/>
</svg>
