<svg width="16" height="16" viewBox="0 0 16 16" fill="none" xmlns="http://www.w3.org/2000/svg">
<g clip-path="url(#clip0_101124_835)">
<path d="M11.3682 15.1924C11.347 15.1942 11.3213 15.1942 11.2907 15.1942C10.9845 15.1942 10.6857 15.0761 10.4632 14.8642L8.59441 13.0406C8.48191 12.9299 8.48004 12.7593 8.59004 12.6468C8.70066 12.5337 8.8719 12.5312 8.9844 12.6412L9.12406 12.498L9.12414 12.4981C9.12417 12.4981 9.1242 12.4982 9.12423 12.4982L10.9897 14.318L10.9999 14.328C11.1131 14.4276 11.2466 14.4404 11.3179 14.4354L11.3186 14.4354C11.3893 14.4307 11.5171 14.4016 11.6162 14.2905L14.5112 10.2509L14.5113 10.2507C14.588 10.144 14.6984 10.0761 14.822 10.0562L14.9232 10.04L14.935 10.0518L11.3701 15.3928L11.3832 15.3919C11.7689 15.3665 12.1311 15.1784 12.3748 14.878L12.3684 14.8844L12.3665 14.8863L12.3654 14.8852M11.3682 15.1924V15.3924H11.3701V15.3927C11.3745 15.3925 11.3789 15.3922 11.3832 15.3918C11.3841 15.3917 11.3849 15.3917 11.3858 15.3916L11.3756 15.2764L11.3756 15.2764L11.3701 15.2136L11.3682 15.1924ZM11.3682 15.1924H11.3701C11.6431 15.1744 11.9031 15.0608 12.1029 14.8763C12.1253 14.8967 12.1501 14.9151 12.1696 14.9241C12.202 14.9321 12.2575 14.9332 12.2794 14.9294C12.2934 14.9255 12.3161 14.9169 12.325 14.9126C12.3416 14.904 12.3532 14.895 12.3573 14.8919C12.3605 14.8894 12.3632 14.8871 12.3654 14.8852M12.3654 14.8852C12.3661 14.8845 12.3668 14.8839 12.3674 14.8834C12.368 14.8828 12.3686 14.8823 12.3691 14.8818C12.372 14.8792 12.3743 14.8768 12.3761 14.8751C12.3772 14.8739 12.3781 14.873 12.3787 14.8724C12.3787 14.8723 12.3787 14.8723 12.3788 14.8723C12.3799 14.871 12.381 14.8699 12.3819 14.8689C12.382 14.8688 12.382 14.8688 12.3821 14.8687C12.3824 14.8684 12.3826 14.8681 12.3829 14.8678M12.3654 14.8852L12.2454 14.7652L12.2407 14.7605L12.2251 14.7449L12.2401 14.7561L12.2795 14.7857L12.3851 14.8649L12.3832 14.8674L12.3829 14.8678M12.3829 14.8678C12.3839 14.8667 12.3846 14.8659 12.3849 14.8655L12.3872 14.8628C12.3887 14.861 12.3909 14.8582 12.3892 14.8603L12.2277 14.7421M12.3829 14.8678L12.2277 14.7421M12.2277 14.7421C12.2282 14.7415 12.2287 14.7409 12.2292 14.7403C12.2292 14.7403 12.2292 14.7403 12.2292 14.7403M5.68386 7.57751L5.68406 7.57766L5.84627 7.69888L5.65312 7.76247C5.65312 7.76247 5.65312 7.76247 5.65312 7.76247C4.77747 8.05072 3.95491 8.49952 3.23551 9.09109C1.91666 10.1756 1.00102 11.6895 0.6549 13.351C0.550796 13.8497 0.673647 14.3573 0.994263 14.7517L0.994296 14.7518C1.31284 15.1434 1.78167 15.3668 2.28695 15.3668H7.44327C7.71064 15.3668 7.92202 15.1578 7.92202 14.888C7.92202 14.6198 7.71153 14.4087 7.44327 14.4087H2.28695C2.02708 14.4087 1.84709 14.2705 1.75765 14.1709L1.73734 14.1459C1.60116 13.9778 1.54706 13.7566 1.59143 13.5454L1.5915 13.5451C2.20855 10.5823 4.82099 8.41818 7.83941 8.34428H7.85143L7.85964 8.34458C7.90574 8.34628 7.95321 8.34803 7.99823 8.34803C8.04416 8.34803 8.09367 8.34621 8.14093 8.34448L8.14628 8.34428H8.15892C9.68648 8.38182 11.1532 8.95125 12.3048 9.95745L12.4351 9.80829L12.3048 9.95746C12.5061 10.1333 12.8028 10.1153 12.9804 9.91325L12.9808 9.91281C13.1572 9.71081 13.1373 9.41388 12.9349 9.2369L12.9348 9.23685C12.1734 8.57169 11.2924 8.07209 10.3464 7.76123C10.3464 7.76122 10.3464 7.76122 10.3463 7.76121L10.1537 7.69787L10.3158 7.57624C10.3158 7.57622 10.3158 7.5762 10.3158 7.57617C11.2581 6.86962 11.8701 5.74535 11.8701 4.47686C11.8701 2.33961 10.1375 0.605664 8.00007 0.605664H7.82864L7.82797 0.610007C5.77041 0.700025 4.12878 2.39711 4.12878 4.47745C4.12878 5.74653 4.74087 6.871 5.68386 7.57751ZM5.08438 4.47686C5.08438 2.87524 6.39212 1.5664 7.99325 1.56374L7.99325 1.56376H7.99873C9.60211 1.56376 10.9125 2.87304 10.9125 4.47688C10.9125 6.03111 9.68342 7.30993 8.14684 7.38656L8.14683 7.38619L8.13495 7.38751C8.08812 7.3863 8.0429 7.38569 7.99931 7.38569C7.96967 7.38569 7.93743 7.38628 7.90662 7.38684C7.89195 7.3871 7.87759 7.38736 7.864 7.38755L7.86389 7.38754L7.86393 7.38717L7.85172 7.38656C6.41966 7.31548 5.28996 6.18325 5.14396 4.76267L5.12551 4.58312H5.08438V4.47686Z" fill="#213F7D" stroke="#213F7D" stroke-width="0.4"/>
</g>
<defs>
<clipPath id="clip0_101124_835">
<rect width="16" height="16" fill="white"/>
</clipPath>
</defs>
</svg>
