<svg width="50" height="50" viewBox="0 0 50 50" fill="none" xmlns="http://www.w3.org/2000/svg">
<path fill-rule="evenodd" clip-rule="evenodd" d="M35.9376 21.875C35.9376 23.7217 35.5739 25.5504 34.8672 27.2565C34.1605 28.9626 33.1246 30.5129 31.8188 31.8187C30.513 33.1245 28.9627 34.1604 27.2566 34.8671C25.5505 35.5738 23.7218 35.9375 21.8751 35.9375C20.0284 35.9375 18.1998 35.5738 16.4936 34.8671C14.7875 34.1604 13.2372 33.1245 11.9314 31.8187C10.6256 30.5129 9.58976 28.9626 8.88305 27.2565C8.17634 25.5504 7.81261 23.7217 7.81261 21.875C7.81261 18.1454 9.29419 14.5686 11.9314 11.9313C14.5686 9.2941 18.1455 7.81251 21.8751 7.81251C25.6047 7.81251 29.1816 9.2941 31.8188 11.9313C34.456 14.5686 35.9376 18.1454 35.9376 21.875ZM33.3751 36.6875C29.6075 39.6124 24.8669 40.9916 20.1182 40.5442C15.3696 40.0968 10.9699 37.8565 7.81495 34.2794C4.65996 30.7022 2.98683 26.0572 3.13615 21.2899C3.28548 16.5225 5.24604 11.9913 8.61871 8.61862C11.9914 5.24595 16.5226 3.28539 21.29 3.13606C26.0573 2.98674 30.7023 4.65987 34.2795 7.81486C37.8566 10.9698 40.0969 15.3695 40.5443 20.1181C40.9917 24.8668 39.6125 29.6074 36.6876 33.375L46.1876 42.875C46.4179 43.0896 46.6026 43.3483 46.7307 43.6358C46.8588 43.9233 46.9277 44.2337 46.9332 44.5484C46.9388 44.8631 46.8809 45.1757 46.763 45.4675C46.6451 45.7593 46.4697 46.0245 46.2471 46.247C46.0245 46.4696 45.7594 46.645 45.4676 46.7629C45.1758 46.8808 44.8632 46.9387 44.5485 46.9331C44.2338 46.9276 43.9234 46.8587 43.6359 46.7306C43.3484 46.6025 43.0897 46.4178 42.8751 46.1875L33.3751 36.6875Z" fill="#023047"/>
</svg>
