<svg width="291" height="55" viewBox="0 0 291 55" fill="none" xmlns="http://www.w3.org/2000/svg">
<path d="M25.7577 3.09115C26.5227 1.73386 28.4773 1.73386 29.2423 3.09115L35.7792 14.6887C36.0646 15.195 36.5561 15.5522 37.1259 15.6671L50.1758 18.3002C51.7031 18.6084 52.307 20.4673 51.2526 21.6143L42.2427 31.415C41.8493 31.8429 41.6615 32.4208 41.7283 32.9982L43.2567 46.2231C43.4356 47.7708 41.8543 48.9197 40.4376 48.2713L28.3323 42.7309C27.8038 42.489 27.1962 42.489 26.6677 42.7309L14.5624 48.2713C13.1457 48.9197 11.5644 47.7708 11.7433 46.2231L13.2717 32.9982C13.3385 32.4208 13.1507 31.8429 12.7573 31.415L3.7474 21.6143C2.69295 20.4673 3.29694 18.6084 4.8242 18.3002L17.8741 15.6671C18.4439 15.5522 18.9354 15.195 19.2208 14.6887L25.7577 3.09115Z" fill="#FCBF49"/>
<path d="M143.758 3.09115C144.523 1.73386 146.477 1.73386 147.242 3.09115L153.779 14.6887C154.065 15.195 154.556 15.5522 155.126 15.6671L168.176 18.3002C169.703 18.6084 170.307 20.4673 169.253 21.6143L160.243 31.415C159.849 31.8429 159.662 32.4208 159.728 32.9982L161.257 46.2231C161.436 47.7708 159.854 48.9197 158.438 48.2713L146.332 42.7309C145.804 42.489 145.196 42.489 144.668 42.7309L132.562 48.2713C131.146 48.9197 129.564 47.7708 129.743 46.2231L131.272 32.9982C131.338 32.4208 131.151 31.8429 130.757 31.415L121.747 21.6143C120.693 20.4673 121.297 18.6084 122.824 18.3002L135.874 15.6671C136.444 15.5522 136.935 15.195 137.221 14.6887L143.758 3.09115Z" fill="#FCBF49"/>
<path d="M84.7577 3.09115C85.5227 1.73386 87.4773 1.73386 88.2423 3.09115L94.7792 14.6887C95.0646 15.195 95.5561 15.5522 96.1259 15.6671L109.176 18.3002C110.703 18.6084 111.307 20.4673 110.253 21.6143L101.243 31.415C100.849 31.8429 100.662 32.4208 100.728 32.9982L102.257 46.2231C102.436 47.7708 100.854 48.9197 99.4376 48.2713L87.3323 42.7309C86.8038 42.489 86.1962 42.489 85.6677 42.7309L73.5624 48.2713C72.1457 48.9197 70.5644 47.7708 70.7433 46.2231L72.2717 32.9982C72.3385 32.4208 72.1507 31.8429 71.7573 31.415L62.7474 21.6143C61.693 20.4673 62.2969 18.6084 63.8242 18.3002L76.8741 15.6671C77.4439 15.5522 77.9354 15.195 78.2208 14.6887L84.7577 3.09115Z" fill="#FCBF49"/>
<path d="M202.758 3.09115C203.523 1.73386 205.477 1.73386 206.242 3.09115L212.779 14.6887C213.065 15.195 213.556 15.5522 214.126 15.6671L227.176 18.3002C228.703 18.6084 229.307 20.4673 228.253 21.6143L219.243 31.415C218.849 31.8429 218.662 32.4208 218.728 32.9982L220.257 46.2231C220.436 47.7708 218.854 48.9197 217.438 48.2713L205.332 42.7309C204.804 42.489 204.196 42.489 203.668 42.7309L191.562 48.2713C190.146 48.9197 188.564 47.7708 188.743 46.2231L190.272 32.9982C190.338 32.4208 190.151 31.8429 189.757 31.415L180.747 21.6143C179.693 20.4673 180.297 18.6084 181.824 18.3002L194.874 15.6671C195.444 15.5522 195.935 15.195 196.221 14.6887L202.758 3.09115Z" fill="#FCBF49"/>
<path d="M261.758 3.09115C262.523 1.73386 264.477 1.73386 265.242 3.09115L271.779 14.6887C272.065 15.195 272.556 15.5522 273.126 15.6671L286.176 18.3002C287.703 18.6084 288.307 20.4673 287.253 21.6143L278.243 31.415C277.849 31.8429 277.662 32.4208 277.728 32.9982L279.257 46.2231C279.436 47.7708 277.854 48.9197 276.438 48.2713L264.332 42.7309C263.804 42.489 263.196 42.489 262.668 42.7309L250.562 48.2713C249.146 48.9197 247.564 47.7708 247.743 46.2231L249.272 32.9982C249.338 32.4208 249.151 31.8429 248.757 31.415L239.747 21.6143C238.693 20.4673 239.297 18.6084 240.824 18.3002L253.874 15.6671C254.444 15.5522 254.935 15.195 255.221 14.6887L261.758 3.09115Z" fill="#FCBF49"/>
</svg>
