<svg width="154" height="50" viewBox="0 0 154 50" fill="none" xmlns="http://www.w3.org/2000/svg">
<path d="M19.1626 44.7918H27.4959V28.1043H35.0042L35.8292 19.8127H27.4959V15.6252C27.4959 15.0726 27.7154 14.5427 28.1061 14.152C28.4968 13.7613 29.0267 13.5418 29.5792 13.5418H35.8292V5.2085H29.5792C26.8166 5.2085 24.167 6.30596 22.2135 8.25947C20.26 10.213 19.1626 12.8625 19.1626 15.6252V19.8127H14.9959L14.1709 28.1043H19.1626V44.7918Z" fill="#023047"/>
<path d="M77.1417 4.1665C79.4855 4.17275 80.675 4.18525 81.7021 4.21442L82.1063 4.229C82.573 4.24567 83.0334 4.2665 83.5896 4.2915C85.8063 4.39567 87.3188 4.74567 88.6459 5.26025C90.0209 5.78942 91.1792 6.50609 92.3375 7.66234C93.3973 8.70345 94.2171 9.96332 94.7396 11.354C95.2542 12.6811 95.6042 14.1936 95.7084 16.4123C95.7334 16.9665 95.7542 17.4269 95.7709 17.8957L95.7834 18.2998C95.8146 19.3248 95.8271 20.5144 95.8313 22.8582L95.8334 24.4123V27.1415C95.8385 28.6611 95.8225 30.1807 95.7855 31.6998L95.773 32.104C95.7563 32.5728 95.7355 33.0332 95.7105 33.5873C95.6063 35.8061 95.2521 37.3165 94.7396 38.6457C94.2171 40.0364 93.3973 41.2962 92.3375 42.3373C91.2964 43.3971 90.0366 44.2169 88.6459 44.7394C87.3188 45.254 85.8063 45.604 83.5896 45.7082L82.1063 45.7707L81.7021 45.7832C80.675 45.8123 79.4855 45.8269 77.1417 45.8311L75.5875 45.8332H72.8605C71.3402 45.8385 69.8199 45.8226 68.3 45.7853L67.8959 45.7728C67.4013 45.754 66.9069 45.7325 66.4125 45.7082C64.1959 45.604 62.6834 45.254 61.3542 44.7394C59.9643 44.2166 58.7051 43.3969 57.6646 42.3373C56.6041 41.2964 55.7836 40.0365 55.2605 38.6457C54.7459 37.3186 54.3959 35.8061 54.2917 33.5873L54.2292 32.104L54.2188 31.6998C54.1804 30.1807 54.163 28.6611 54.1667 27.1415V22.8582C54.1609 21.3386 54.1762 19.819 54.2125 18.2998L54.2271 17.8957C54.2438 17.4269 54.2646 16.9665 54.2896 16.4123C54.3938 14.1936 54.7438 12.6832 55.2584 11.354C55.7827 9.96275 56.6047 8.70283 57.6667 7.66234C58.7066 6.60306 59.965 5.78332 61.3542 5.26025C62.6834 4.74567 64.1938 4.39567 66.4125 4.2915C66.9667 4.2665 67.4292 4.24567 67.8959 4.229L68.3 4.2165C69.8192 4.17949 71.3388 4.16351 72.8584 4.16859L77.1417 4.1665ZM75 14.5832C72.2374 14.5832 69.5879 15.6806 67.6344 17.6341C65.6808 19.5876 64.5834 22.2372 64.5834 24.9998C64.5834 27.7625 65.6808 30.412 67.6344 32.3655C69.5879 34.319 72.2374 35.4165 75 35.4165C77.7627 35.4165 80.4122 34.319 82.3657 32.3655C84.3192 30.412 85.4167 27.7625 85.4167 24.9998C85.4167 22.2372 84.3192 19.5876 82.3657 17.6341C80.4122 15.6806 77.7627 14.5832 75 14.5832ZM75 18.7498C75.8208 18.7497 76.6336 18.9112 77.3919 19.2252C78.1502 19.5392 78.8393 19.9994 79.4198 20.5797C80.0002 21.16 80.4607 21.8489 80.7749 22.6071C81.0892 23.3653 81.251 24.178 81.2511 24.9988C81.2512 25.8196 81.0897 26.6323 80.7757 27.3906C80.4618 28.149 80.0015 28.8381 79.4212 29.4185C78.841 29.999 78.1521 30.4595 77.3938 30.7737C76.6356 31.0879 75.8229 31.2497 75.0021 31.2498C73.3445 31.2498 71.7548 30.5914 70.5827 29.4193C69.4106 28.2472 68.7521 26.6574 68.7521 24.9998C68.7521 23.3422 69.4106 21.7525 70.5827 20.5804C71.7548 19.4083 73.3445 18.7498 75.0021 18.7498M85.9396 11.4582C85.249 11.4582 84.5866 11.7325 84.0982 12.2209C83.6098 12.7093 83.3355 13.3717 83.3355 14.0623C83.3355 14.753 83.6098 15.4154 84.0982 15.9038C84.5866 16.3921 85.249 16.6665 85.9396 16.6665C86.6303 16.6665 87.2927 16.3921 87.7811 15.9038C88.2694 15.4154 88.5438 14.753 88.5438 14.0623C88.5438 13.3717 88.2694 12.7093 87.7811 12.2209C87.2927 11.7325 86.6303 11.4582 85.9396 11.4582Z" fill="#023047"/>
<path d="M150.277 11.7834C148.686 12.4865 147 12.9485 145.273 13.1543C147.091 12.0642 148.452 10.3512 149.102 8.33342C147.394 9.35009 145.521 10.0626 143.571 10.448C142.26 9.04505 140.522 8.1146 138.627 7.80131C136.732 7.48802 134.787 7.80945 133.094 8.71562C131.401 9.62179 130.055 11.0619 129.265 12.8122C128.475 14.5624 128.285 16.5246 128.725 18.3938C125.26 18.221 121.87 17.3211 118.776 15.7526C115.682 14.1841 112.952 11.9821 110.765 9.28967C109.99 10.6199 109.583 12.1318 109.585 13.6709C109.585 16.6918 111.125 19.3605 113.46 20.923C112.078 20.8769 110.725 20.5035 109.515 19.8334V19.9397C109.515 21.9519 110.211 23.9022 111.484 25.4598C112.758 27.0174 114.532 28.0864 116.504 28.4855C115.22 28.8342 113.874 28.8855 112.567 28.6355C113.123 30.3676 114.207 31.8823 115.667 32.9676C117.127 34.0529 118.89 34.6543 120.708 34.6876C118.9 36.1067 116.831 37.1557 114.617 37.7749C112.404 38.394 110.09 38.5711 107.808 38.2959C111.791 40.8572 116.427 42.217 121.163 42.2126C137.192 42.2126 145.954 28.9355 145.954 17.4209C145.954 17.0445 145.946 16.6688 145.929 16.2938C147.634 15.0612 149.106 13.5345 150.275 11.7855" fill="#023047"/>
</svg>
