<svg width="112" height="19" viewBox="0 0 112 19" fill="none" xmlns="http://www.w3.org/2000/svg">
<path d="M9.28247 0.416995C9.59753 -0.138998 10.4025 -0.138998 10.7175 0.416995L13.4096 5.16775C13.5271 5.37517 13.7296 5.52147 13.9642 5.56856L19.3385 6.64717C19.9675 6.7734 20.2162 7.53486 19.782 8.00472L16.0715 12.0194C15.9095 12.1947 15.8321 12.4314 15.8596 12.668L16.4891 18.0853C16.5627 18.7194 15.9115 19.19 15.3281 18.9244L10.3428 16.6548C10.1251 16.5558 9.87488 16.5558 9.65722 16.6548L4.67192 18.9244C4.08848 19.19 3.43727 18.7194 3.51094 18.0853L4.14039 12.668C4.16787 12.4314 4.09055 12.1947 3.92854 12.0194L0.218007 8.00472C-0.216247 7.53486 0.0324924 6.7734 0.661463 6.64717L6.03579 5.56856C6.27043 5.52147 6.47287 5.37517 6.59041 5.16775L9.28247 0.416995Z" fill="#FCBF49"/>
<path d="M32.2825 0.416995C32.5975 -0.138998 33.4025 -0.138998 33.7175 0.416995L36.4096 5.16775C36.5271 5.37517 36.7296 5.52147 36.9642 5.56856L42.3385 6.64717C42.9675 6.7734 43.2162 7.53486 42.782 8.00472L39.0715 12.0194C38.9095 12.1947 38.8321 12.4314 38.8596 12.668L39.4891 18.0853C39.5627 18.7194 38.9115 19.19 38.3281 18.9244L33.3428 16.6548C33.1251 16.5558 32.8749 16.5558 32.6572 16.6548L27.6719 18.9244C27.0885 19.19 26.4373 18.7194 26.5109 18.0853L27.1404 12.668C27.1679 12.4314 27.0905 12.1947 26.9285 12.0194L23.218 8.00472C22.7838 7.53486 23.0325 6.7734 23.6615 6.64717L29.0358 5.56856C29.2704 5.52147 29.4729 5.37517 29.5904 5.16775L32.2825 0.416995Z" fill="#FCBF49"/>
<path d="M55.2825 0.416995C55.5975 -0.138998 56.4025 -0.138998 56.7175 0.416995L59.4096 5.16775C59.5271 5.37517 59.7296 5.52147 59.9642 5.56856L65.3385 6.64717C65.9675 6.7734 66.2162 7.53486 65.782 8.00472L62.0715 12.0194C61.9095 12.1947 61.8321 12.4314 61.8596 12.668L62.4891 18.0853C62.5627 18.7194 61.9115 19.19 61.3281 18.9244L56.3428 16.6548C56.1251 16.5558 55.8749 16.5558 55.6572 16.6548L50.6719 18.9244C50.0885 19.19 49.4373 18.7194 49.5109 18.0853L50.1404 12.668C50.1679 12.4314 50.0905 12.1947 49.9285 12.0194L46.218 8.00472C45.7838 7.53486 46.0325 6.7734 46.6615 6.64717L52.0358 5.56856C52.2704 5.52147 52.4729 5.37517 52.5904 5.16775L55.2825 0.416995Z" fill="#FCBF49"/>
<path d="M78.2825 0.416995C78.5975 -0.138998 79.4025 -0.138998 79.7175 0.416995L82.4096 5.16775C82.5271 5.37517 82.7296 5.52147 82.9642 5.56856L88.3385 6.64717C88.9675 6.7734 89.2162 7.53486 88.782 8.00472L85.0715 12.0194C84.9095 12.1947 84.8321 12.4314 84.8596 12.668L85.4891 18.0853C85.5627 18.7194 84.9115 19.19 84.3281 18.9244L79.3428 16.6548C79.1251 16.5558 78.8749 16.5558 78.6572 16.6548L73.6719 18.9244C73.0885 19.19 72.4373 18.7194 72.5109 18.0853L73.1404 12.668C73.1679 12.4314 73.0905 12.1947 72.9285 12.0194L69.218 8.00472C68.7838 7.53486 69.0325 6.7734 69.6615 6.64717L75.0358 5.56856C75.2704 5.52147 75.4729 5.37517 75.5904 5.16775L78.2825 0.416995Z" fill="#FCBF49"/>
<path d="M101.282 0.416995C101.598 -0.138998 102.402 -0.138998 102.718 0.416995L105.41 5.16775C105.527 5.37517 105.73 5.52147 105.964 5.56856L111.339 6.64717C111.968 6.7734 112.216 7.53486 111.782 8.00472L108.071 12.0194C107.909 12.1947 107.832 12.4314 107.86 12.668L108.489 18.0853C108.563 18.7194 107.912 19.19 107.328 18.9244L102.343 16.6548C102.125 16.5558 101.875 16.5558 101.657 16.6548L96.6719 18.9244C96.0885 19.19 95.4373 18.7194 95.5109 18.0853L96.1404 12.668C96.1679 12.4314 96.0905 12.1947 95.9285 12.0194L92.218 8.00472C91.7838 7.53486 92.0325 6.7734 92.6615 6.64717L98.0358 5.56856C98.2704 5.52147 98.4729 5.37517 98.5904 5.16775L101.282 0.416995Z" fill="#FCBF49"/>
</svg>
