<svg width="16" height="16" viewBox="0 0 16 16" fill="none" xmlns="http://www.w3.org/2000/svg">
<g clip-path="url(#clip0_101124_718)">
<path opacity="0.4" d="M6.05616 7.11564L0.585531 12.5863C0.219508 12.9631 0.0164777 13.4689 0.0203172 13.9943C0.0241566 14.5196 0.234558 15.0224 0.60605 15.3939C0.977543 15.7654 1.48029 15.9758 2.00565 15.9796C2.531 15.9834 3.03677 15.7804 3.41366 15.4144L8.06616 10.7619C7.98305 10.2752 8.05498 9.7748 8.27178 9.33126L6.05616 7.11564ZM1.99991 14.75C1.85157 14.75 1.70657 14.706 1.58323 14.6236C1.45989 14.5412 1.36376 14.4241 1.307 14.287C1.25023 14.15 1.23538 13.9992 1.26432 13.8537C1.29326 13.7082 1.36469 13.5746 1.46958 13.4697C1.57447 13.3648 1.7081 13.2934 1.85359 13.2644C1.99907 13.2355 2.14987 13.2503 2.28692 13.3071C2.42396 13.3639 2.5411 13.46 2.62351 13.5833C2.70592 13.7067 2.74991 13.8517 2.74991 14C2.74991 14.1989 2.67089 14.3897 2.53024 14.5303C2.38958 14.671 2.19882 14.75 1.99991 14.75V14.75ZM15.8665 3.40939C15.8501 3.34521 15.817 3.28652 15.7706 3.23928C15.7242 3.19204 15.666 3.15794 15.6022 3.14045C15.5383 3.12295 15.4709 3.12269 15.4069 3.13969C15.3429 3.15668 15.2845 3.19033 15.2377 3.2372L12.914 5.56251L10.7927 5.20908L10.4393 3.08626L12.763 0.762513C12.8102 0.715434 12.844 0.656628 12.8609 0.592151C12.8778 0.527674 12.8772 0.459857 12.8592 0.395681C12.8412 0.331506 12.8064 0.273293 12.7584 0.227037C12.7104 0.180781 12.651 0.148153 12.5862 0.132513C11.8329 -0.0550318 11.044 -0.044435 10.296 0.163273C9.54812 0.370981 8.86669 0.768729 8.31803 1.31783C7.07928 2.55658 6.73834 4.3522 7.25397 5.91783L7.11553 6.05626L9.33116 8.27189C9.76559 8.0563 10.2567 7.98226 10.7353 8.06018C11.214 8.13809 11.6563 8.36404 11.9999 8.70626L12.2252 8.93158C13.1562 8.78677 14.0167 8.3489 14.6818 7.68158C15.2314 7.13242 15.6294 6.45027 15.837 5.70157C16.0446 4.95288 16.0548 4.16317 15.8665 3.40939V3.40939Z" fill="#213F7D"/>
<path d="M15.6594 12.3656C15.877 12.5844 15.9992 12.8805 15.9992 13.1891C15.9992 13.4977 15.877 13.7937 15.6594 14.0125L14.0125 15.6594C13.7951 15.8778 13.4999 16.0008 13.1917 16.0015C12.8836 16.0023 12.5878 15.8805 12.3694 15.6631L12.3656 15.6594L8.70625 12C7.98438 11.2781 7.84688 10.2 8.27188 9.33125L4.94063 6H3L0 2L2 0L6 3V4.94063L9.33125 8.27188C9.76568 8.05629 10.2567 7.98225 10.7354 8.06016C11.2141 8.13807 11.6564 8.36402 12 8.70625L15.6594 12.3656Z" fill="#213F7D"/>
</g>
<defs>
<clipPath id="clip0_101124_718">
<rect width="16" height="16" fill="white"/>
</clipPath>
</defs>
</svg>
