<svg width="35" height="35" viewBox="0 0 35 35" fill="none" xmlns="http://www.w3.org/2000/svg">
<g clip-path="url(#clip0_20_352)">
<path d="M7 14C6.99904 11.8184 7.67766 9.69067 8.94154 7.91245C10.2054 6.13423 11.9918 4.79385 14.0525 4.07755C13.9727 3.57759 14.0023 3.06627 14.1393 2.57887C14.2763 2.09147 14.5174 1.63959 14.846 1.25441C15.1745 0.869227 15.5828 0.559917 16.0425 0.347817C16.5022 0.135718 17.0025 0.0258789 17.5087 0.0258789C18.015 0.0258789 18.5153 0.135718 18.975 0.347817C19.4347 0.559917 19.843 0.869227 20.1715 1.25441C20.5001 1.63959 20.7412 2.09147 20.8782 2.57887C21.0152 3.06627 21.0448 3.57759 20.965 4.07755C23.0224 4.79678 24.805 6.13842 26.0656 7.91639C27.3262 9.69437 28.0022 11.8205 28 14V24.5L33.25 28V29.75H1.75V28L7 24.5V14ZM21 31.5C21 32.4283 20.6313 33.3185 19.9749 33.9749C19.3185 34.6313 18.4283 35 17.5 35C16.5717 35 15.6815 34.6313 15.0251 33.9749C14.3687 33.3185 14 32.4283 14 31.5H21Z" fill="#E8F4FF"/>
</g>
<defs>
<clipPath id="clip0_20_352">
<rect width="35" height="35" fill="white"/>
</clipPath>
</defs>
</svg>
